ISO-10303-21;
HEADER;
FILE_DESCRIPTION (( 'STEP AP203' ),
    '1' );
FILE_NAME ('M-20iA35M axis6-M-20iA35M_Défaut_sldprt.STEP',
    '2025-11-12T15:55:30',
    ( '' ),
    ( '' ),
    'SwSTEP 2.0',
    'SolidWorks 2023',
    '' );
FILE_SCHEMA (( 'CONFIG_CONTROL_DESIGN' ));
ENDSEC;

DATA;
#1 = AXIS2_PLACEMENT_3D ( 'NONE', #963, #371, #982 ) ;
#2 = CARTESIAN_POINT ( 'NONE',  ( 93.99999999999994316, -50.33137084989849086, 25.16568542494934135 ) ) ;
#3 = VERTEX_POINT ( 'NONE', #356 ) ;
#4 = EDGE_CURVE ( 'NONE', #3, #744, #266, .T. ) ;
#5 = DIRECTION ( 'NONE',  ( 0.000000000000000000, 0.000000000000000000, 1.000000000000000000 ) ) ;
#6 = EDGE_LOOP ( 'NONE', ( #30, #748, #577, #720, #635 ) ) ;
#7 = PERSON_AND_ORGANIZATION ( #223, #56 ) ;
#8 = CIRCLE ( 'NONE', #500, 2.458500000000002572 ) ;
#9 = EDGE_LOOP ( 'NONE', ( #370, #151 ) ) ;
#10 = FACE_OUTER_BOUND ( 'NONE', #393, .T. ) ;
#11 = VERTEX_POINT ( 'NONE', #1129 ) ;
#12 = CARTESIAN_POINT ( 'NONE',  ( 93.99999999999994316, 3.593997051792036547E-15, 25.16568542494936267 ) ) ;
#13 = DIRECTION ( 'NONE',  ( 1.000000000000000000, -0.000000000000000000, -0.000000000000000000 ) ) ;
#14 = APPROVAL_DATE_TIME ( #534, #493 ) ;
#15 = FACE_OUTER_BOUND ( 'NONE', #129, .T. ) ;
#16 = CARTESIAN_POINT ( 'NONE',  ( 94.00000000000000000, 14.14213562373099897, -14.14213562373087996 ) ) ;
#17 = DIRECTION ( 'NONE',  ( 0.000000000000000000, 0.000000000000000000, 1.000000000000000000 ) ) ;
#18 = VERTEX_POINT ( 'NONE', #437 ) ;
#19 = ADVANCED_FACE ( 'NONE', ( #709 ), #156, .F. ) ;
#20 = EDGE_LOOP ( 'NONE', ( #138, #57 ) ) ;
#21 = CARTESIAN_POINT ( 'NONE',  ( 94.00000000000000000, 5.551115123125779547E-14, 7.843419788940609499E-14 ) ) ;
#22 = AXIS2_PLACEMENT_3D ( 'NONE', #742, #842, #659 ) ;
#23 = DIRECTION ( 'NONE',  ( -1.000000000000000000, 0.000000000000000000, 0.000000000000000000 ) ) ;
#24 = ORIENTED_EDGE ( 'NONE', *, *, #301, .T. ) ;
#25 = CIRCLE ( 'NONE', #1128, 0.4000000000000010214 ) ;
#26 = EDGE_CURVE ( 'NONE', #783, #440, #175, .T. ) ;
#27 = LINE ( 'NONE', #105, #90 ) ;
#28 = DIRECTION ( 'NONE',  ( 0.000000000000000000, 0.000000000000000000, -1.000000000000000000 ) ) ;
#29 = DIRECTION ( 'NONE',  ( 0.000000000000000000, 0.000000000000000000, 1.000000000000000000 ) ) ;
#30 = ORIENTED_EDGE ( 'NONE', *, *, #122, .T. ) ;
#31 = DIRECTION ( 'NONE',  ( -1.000000000000000000, 0.000000000000000000, 0.000000000000000000 ) ) ;
#32 = DIRECTION ( 'NONE',  ( -1.000000000000000000, 0.000000000000000000, 0.000000000000000000 ) ) ;
#33 = CARTESIAN_POINT ( 'NONE',  ( 93.00000000000000000, 5.551115123125779547E-14, 7.843419788940609499E-14 ) ) ;
#34 = ORIENTED_EDGE ( 'NONE', *, *, #93, .F. ) ;
#35 = AXIS2_PLACEMENT_3D ( 'NONE', #16, #359, #717 ) ;
#36 = DIRECTION ( 'NONE',  ( -1.000000000000000000, -2.775557561562891351E-16, -3.851859888774471706E-32 ) ) ;
#37 = CC_DESIGN_PERSON_AND_ORGANIZATION_ASSIGNMENT ( #625, #444, ( #363 ) ) ;
#38 = AXIS2_PLACEMENT_3D ( 'NONE', #1031, #522, #594 ) ;
#39 = EDGE_CURVE ( 'NONE', #528, #458, #757, .T. ) ;
#40 = FACE_OUTER_BOUND ( 'NONE', #971, .T. ) ;
#41 = VERTEX_POINT ( 'NONE', #1063 ) ;
#42 = ORIENTED_EDGE ( 'NONE', *, *, #141, .T. ) ;
#43 = VECTOR ( 'NONE', #951, 1000.000000000000000 ) ;
#44 = CONICAL_SURFACE ( 'NONE', #851, 13.00000000000000178, 0.7853981633974482790 ) ;
#45 = CARTESIAN_POINT ( 'NONE',  ( 94.00000000000000000, 20.00000000000000000, -2.458499999999925745 ) ) ;
#46 = DIRECTION ( 'NONE',  ( 0.000000000000000000, 0.000000000000000000, 1.000000000000000000 ) ) ;
#47 = ORIENTED_EDGE ( 'NONE', *, *, #457, .T. ) ;
#48 = CARTESIAN_POINT ( 'NONE',  ( 100.0000000000000000, 5.551115123125779547E-14, 7.806255641895631925E-14 ) ) ;
#49 = ORIENTED_EDGE ( 'NONE', *, *, #768, .F. ) ;
#50 = CARTESIAN_POINT ( 'NONE',  ( 100.0000000000000000, -20.00000000000000000, 7.149530398549889186E-14 ) ) ;
#51 = ORIENTED_EDGE ( 'NONE', *, *, #708, .T. ) ;
#52 = ADVANCED_FACE ( 'NONE', ( #331 ), #147, .T. ) ;
#53 = CARTESIAN_POINT ( 'NONE',  ( 100.0000000000000000, 20.00000000000000000, 7.669947441342928790E-14 ) ) ;
#54 = CARTESIAN_POINT ( 'NONE',  ( 99.50000000000000000, -24.99999999999994671, 7.806255641895631925E-14 ) ) ;
#55 = VECTOR ( 'NONE', #232, 999.9999999999998863 ) ;
#56 = ORGANIZATION ( 'UNSPECIFIED', 'UNSPECIFIED', '' ) ;
#57 = ORIENTED_EDGE ( 'NONE', *, *, #811, .T. ) ;
#58 = APPROVAL ( #73, 'UNSPECIFIED' ) ;
#59 = FACE_OUTER_BOUND ( 'NONE', #1099, .T. ) ;
#60 = VECTOR ( 'NONE', #929, 999.9999999999998863 ) ;
#61 = CIRCLE ( 'NONE', #775, 25.00000000000000000 ) ;
#62 = DIRECTION ( 'NONE',  ( -1.000000000000000000, 0.000000000000000000, 0.000000000000000000 ) ) ;
#63 = ORIENTED_EDGE ( 'NONE', *, *, #768, .T. ) ;
#64 = DIRECTION ( 'NONE',  ( 0.000000000000000000, 1.000000000000000000, 0.000000000000000000 ) ) ;
#65 = DIRECTION ( 'NONE',  ( 0.000000000000000000, 0.000000000000000000, 1.000000000000000000 ) ) ;
#66 = LINE ( 'NONE', #54, #60 ) ;
#67 = VERTEX_POINT ( 'NONE', #884 ) ;
#68 = CARTESIAN_POINT ( 'NONE',  ( 94.00000000000000000, -14.14213562373090127, 16.60063562373101931 ) ) ;
#69 = FACE_OUTER_BOUND ( 'NONE', #504, .T. ) ;
#70 = ADVANCED_FACE ( 'NONE', ( #962 ), #97, .F. ) ;
#71 = DIRECTION ( 'NONE',  ( -1.000000000000000000, 0.000000000000000000, 0.000000000000000000 ) ) ;
#72 = CIRCLE ( 'NONE', #291, 2.458500000000000352 ) ;
#73 = APPROVAL_STATUS ( 'not_yet_approved' ) ;
#74 = DIRECTION ( 'NONE',  ( -1.000000000000000000, 0.000000000000000000, 0.000000000000000000 ) ) ;
#75 = EDGE_LOOP ( 'NONE', ( #945, #603 ) ) ;
#76 = CIRCLE ( 'NONE', #226, 2.458500000000000796 ) ;
#77 = DIRECTION ( 'NONE',  ( 1.000000000000000000, -0.000000000000000000, -0.000000000000000000 ) ) ;
#78 = VECTOR ( 'NONE', #1057, 1000.000000000000000 ) ;
#79 = DIRECTION ( 'NONE',  ( 0.000000000000000000, 0.000000000000000000, 1.000000000000000000 ) ) ;
#80 = DIRECTION ( 'NONE',  ( 0.000000000000000000, 0.000000000000000000, 1.000000000000000000 ) ) ;
#81 = ORIENTED_EDGE ( 'NONE', *, *, #822, .F. ) ;
#82 = DIRECTION ( 'NONE',  ( 0.7071067811865475727, 0.000000000000000000, -0.7071067811865474617 ) ) ;
#83 = ORIENTED_EDGE ( 'NONE', *, *, #565, .F. ) ;
#84 = EDGE_CURVE ( 'NONE', #773, #1016, #130, .T. ) ;
#85 = CARTESIAN_POINT ( 'NONE',  ( 100.0000000000000000, 14.14213562373099897, 14.14213562373102029 ) ) ;
#86 = ORIENTED_EDGE ( 'NONE', *, *, #84, .F. ) ;
#87 = DIRECTION ( 'NONE',  ( 1.000000000000000000, -0.000000000000000000, -0.000000000000000000 ) ) ;
#88 = APPLICATION_CONTEXT ( 'configuration controlled 3d designs of mechanical parts and assemblies' ) ;
#89 = ORIENTED_EDGE ( 'NONE', *, *, #1138, .F. ) ;
#90 = VECTOR ( 'NONE', #1060, 1000.000000000000000 ) ;
#91 = AXIS2_PLACEMENT_3D ( 'NONE', #210, #1036, #852 ) ;
#92 = LINE ( 'NONE', #728, #807 ) ;
#93 = EDGE_CURVE ( 'NONE', #18, #264, #313, .T. ) ;
#94 = ORIENTED_EDGE ( 'NONE', *, *, #834, .F. ) ;
#95 = DIRECTION ( 'NONE',  ( -1.000000000000000000, 0.000000000000000000, 0.000000000000000000 ) ) ;
#96 = EDGE_CURVE ( 'NONE', #733, #525, #167, .T. ) ;
#97 = CYLINDRICAL_SURFACE ( 'NONE', #794, 2.458500000000002572 ) ;
#98 = APPROVAL_DATE_TIME ( #164, #355 ) ;
#99 = AXIS2_PLACEMENT_3D ( 'NONE', #467, #454, #29 ) ;
#100 = DIRECTION ( 'NONE',  ( 0.000000000000000000, 0.000000000000000000, -1.000000000000000000 ) ) ;
#101 = CARTESIAN_POINT ( 'NONE',  ( 100.0000000000000000, 5.551115123125779547E-14, -12.99999999999992362 ) ) ;
#102 = ADVANCED_FACE ( 'NONE', ( #1140 ), #248, .T. ) ;
#103 = CARTESIAN_POINT ( 'NONE',  ( 94.00000000000000000, 5.551115123125779547E-14, 20.00000000000000000 ) ) ;
#104 = ORIENTED_EDGE ( 'NONE', *, *, #26, .T. ) ;
#105 = CARTESIAN_POINT ( 'NONE',  ( 100.0000000000000000, 14.14213562373099897, -11.68363562373087916 ) ) ;
#106 = CARTESIAN_POINT ( 'NONE',  ( 94.00000000000000000, 3.110602869833932527E-15, 25.40000000000015845 ) ) ;
#107 = CARTESIAN_POINT ( 'NONE',  ( 100.0000000000000000, -14.14213562373090127, -14.14213562373087996 ) ) ;
#108 = EDGE_CURVE ( 'NONE', #67, #713, #940, .T. ) ;
#109 = EDGE_LOOP ( 'NONE', ( #234, #262, #81, #876 ) ) ;
#110 = CARTESIAN_POINT ( 'NONE',  ( 100.0000000000000000, -20.00000000000000000, 7.149530398549889186E-14 ) ) ;
#111 = AXIS2_PLACEMENT_3D ( 'NONE', #905, #631, #118 ) ;
#112 = CARTESIAN_POINT ( 'NONE',  ( 93.99999999999994316, 50.33137084989878929, 25.16568542494946570 ) ) ;
#113 = DIRECTION ( 'NONE',  ( 0.000000000000000000, 0.000000000000000000, 1.000000000000000000 ) ) ;
#114 = ORIENTED_EDGE ( 'NONE', *, *, #514, .T. ) ;
#115 = VECTOR ( 'NONE', #401, 1000.000000000000000 ) ;
#116 = AXIS2_PLACEMENT_3D ( 'NONE', #772, #77, #1118 ) ;
#117 = ADVANCED_FACE ( 'NONE', ( #634 ), #624, .F. ) ;
#118 = DIRECTION ( 'NONE',  ( 0.000000000000000000, 0.000000000000000000, 1.000000000000000000 ) ) ;
#119 = CARTESIAN_POINT ( 'NONE',  ( 94.16568542494918859, 3.935808355840769384E-15, 25.00000000000007105 ) ) ;
#120 = CARTESIAN_POINT ( 'NONE',  ( 94.00000000000000000, 3.110602869834276865E-15, 25.39999999999999858 ) ) ;
#121 = EDGE_LOOP ( 'NONE', ( #758, #941, #173, #1053 ) ) ;
#122 = EDGE_CURVE ( 'NONE', #125, #986, #887, .T. ) ;
#123 = LINE ( 'NONE', #927, #605 ) ;
#124 = DIRECTION ( 'NONE',  ( -1.000000000000000000, 0.000000000000000000, 0.000000000000000000 ) ) ;
#125 = VERTEX_POINT ( 'NONE', #985 ) ;
#126 = AXIS2_PLACEMENT_3D ( 'NONE', #764, #429, #65 ) ;
#127 = DIRECTION ( 'NONE',  ( 1.000000000000000000, 0.000000000000000000, 0.000000000000000000 ) ) ;
#128 = CYLINDRICAL_SURFACE ( 'NONE', #1073, 2.458500000000000352 ) ;
#129 = EDGE_LOOP ( 'NONE', ( #640, #104, #1023, #948 ) ) ;
#130 = CIRCLE ( 'NONE', #296, 2.458500000000002572 ) ;
#131 = AXIS2_PLACEMENT_3D ( 'NONE', #655, #1093, #478 ) ;
#132 = FACE_OUTER_BOUND ( 'NONE', #6, .T. ) ;
#133 = ORIENTED_EDGE ( 'NONE', *, *, #904, .T. ) ;
#134 = DIRECTION ( 'NONE',  ( 0.000000000000000000, 0.000000000000000000, 1.000000000000000000 ) ) ;
#135 = EDGE_CURVE ( 'NONE', #783, #202, #1091, .T. ) ;
#136 = ORIENTED_EDGE ( 'NONE', *, *, #307, .F. ) ;
#137 = CYLINDRICAL_SURFACE ( 'NONE', #970, 2.458500000000002572 ) ;
#138 = ORIENTED_EDGE ( 'NONE', *, *, #501, .T. ) ;
#139 = CARTESIAN_POINT ( 'NONE',  ( 93.00000000000000000, 5.551115123125779547E-14, 25.00000000000008171 ) ) ;
#140 = EDGE_LOOP ( 'NONE', ( #397, #1088, #1011, #83 ) ) ;
#141 = EDGE_CURVE ( 'NONE', #347, #41, #367, .T. ) ;
#142 = FACE_BOUND ( 'NONE', #667, .T. ) ;
#143 = DIRECTION ( 'NONE',  ( -1.000000000000000000, 0.000000000000000000, 0.000000000000000000 ) ) ;
#144 = AXIS2_PLACEMENT_3D ( 'NONE', #399, #484, #836 ) ;
#145 = VERTEX_POINT ( 'NONE', #282 ) ;
#146 = FACE_BOUND ( 'NONE', #327, .T. ) ;
#147 = CONICAL_SURFACE ( 'NONE', #643, 25.00000000000000000, 0.7853981633974482790 ) ;
#148 = PRODUCT_DEFINITION_SHAPE ( 'NONE', 'NONE',  #260 ) ;
#149 = VECTOR ( 'NONE', #567, 1000.000000000000000 ) ;
#150 = CARTESIAN_POINT ( 'NONE',  ( 93.00000000000000000, 5.857276822912618048E-14, -24.99999999999992184 ) ) ;
#151 = ORIENTED_EDGE ( 'NONE', *, *, #840, .T. ) ;
#152 = DIRECTION ( 'NONE',  ( 1.000000000000000000, -0.000000000000000000, -0.000000000000000000 ) ) ;
#153 = FACE_BOUND ( 'NONE', #1119, .T. ) ;
#154 = EDGE_CURVE ( 'NONE', #523, #856, #76, .T. ) ;
#155 = DIRECTION ( 'NONE',  ( 0.000000000000000000, 0.000000000000000000, -1.000000000000000000 ) ) ;
#156 = CYLINDRICAL_SURFACE ( 'NONE', #348, 2.458500000000000352 ) ;
#157 = PERSON_AND_ORGANIZATION ( #223, #56 ) ;
#158 = DIRECTION ( 'NONE',  ( -1.000000000000000000, 0.000000000000000000, 0.000000000000000000 ) ) ;
#159 = EDGE_LOOP ( 'NONE', ( #511, #114, #89, #670 ) ) ;
#160 = DIRECTION ( 'NONE',  ( -1.000000000000000000, 0.000000000000000000, 0.000000000000000000 ) ) ;
#161 = EDGE_CURVE ( 'NONE', #264, #773, #980, .T. ) ;
#162 = CARTESIAN_POINT ( 'NONE',  ( -95.50000000000000000, 0.000000000000000000, 0.000000000000000000 ) ) ;
#163 = CIRCLE ( 'NONE', #126, 24.99999999999999289 ) ;
#164 = DATE_AND_TIME ( #516, #791 ) ;
#165 = CARTESIAN_POINT ( 'NONE',  ( 99.50000000000000000, 5.704195973019197851E-14, -12.49999999999992184 ) ) ;
#166 = ORIENTED_EDGE ( 'NONE', *, *, #685, .F. ) ;
#167 = CIRCLE ( 'NONE', #421, 2.458500000000000796 ) ;
#168 = DIRECTION ( 'NONE',  ( 0.000000000000000000, 0.000000000000000000, 1.000000000000000000 ) ) ;
#169 = AXIS2_PLACEMENT_3D ( 'NONE', #330, #95, #155 ) ;
#170 = EDGE_LOOP ( 'NONE', ( #213, #42 ) ) ;
#171 = EDGE_CURVE ( 'NONE', #256, #835, #1032, .T. ) ;
#172 = FACE_BOUND ( 'NONE', #75, .T. ) ;
#173 = ORIENTED_EDGE ( 'NONE', *, *, #220, .T. ) ;
#174 = CARTESIAN_POINT ( 'NONE',  ( 100.0000000000000000, -20.00000000000000000, 2.458500000000071850 ) ) ;
#175 = LINE ( 'NONE', #182, #723 ) ;
#176 = APPROVAL_STATUS ( 'not_yet_approved' ) ;
#177 = ADVANCED_FACE ( 'NONE', ( #360 ), #293, .F. ) ;
#178 = ORIENTED_EDGE ( 'NONE', *, *, #93, .T. ) ;
#179 = PLANE ( 'NONE',  #325 ) ;
#180 = ORIENTED_EDGE ( 'NONE', *, *, #4, .T. ) ;
#181 = FACE_OUTER_BOUND ( 'NONE', #304, .T. ) ;
#182 = CARTESIAN_POINT ( 'NONE',  ( 100.0000000000000000, 5.587854527100200722E-14, 17.00000000000000000 ) ) ;
#183 = COORDINATED_UNIVERSAL_TIME_OFFSET ( 7, 0, .AHEAD. ) ;
#184 = AXIS2_PLACEMENT_3D ( 'NONE', #298, #653, #391 ) ;
#185 = AXIS2_PLACEMENT_3D ( 'NONE', #922, #1112, #318 ) ;
#186 = ORIENTED_EDGE ( 'NONE', *, *, #526, .T. ) ;
#187 = CIRCLE ( 'NONE', #740, 2.458500000000000796 ) ;
#188 = CARTESIAN_POINT ( 'NONE',  ( 94.39999999999999147, 5.857276822912618048E-14, -24.99999999999991829 ) ) ;
#189 = EDGE_LOOP ( 'NONE', ( #928, #63, #24, #317, #520 ) ) ;
#190 = EDGE_CURVE ( 'NONE', #938, #440, #683, .T. ) ;
#191 = CARTESIAN_POINT ( 'NONE',  ( 100.0000000000000000, -14.14213562373090127, 14.14213562373102029 ) ) ;
#192 = AXIS2_PLACEMENT_3D ( 'NONE', #103, #1081, #212 ) ;
#193 = DIRECTION ( 'NONE',  ( -1.000000000000000000, -2.775557561562891351E-16, -3.851859888774471706E-32 ) ) ;
#194 = CARTESIAN_POINT ( 'NONE',  ( 100.0000000000000000, -14.14213562373090127, 16.60063562373101931 ) ) ;
#195 = ADVANCED_FACE ( 'NONE', ( #1086 ), #991, .F. ) ;
#196 = CARTESIAN_POINT ( 'NONE',  ( 94.00000000000000000, 20.00000000000000000, 7.669947441342928790E-14 ) ) ;
#197 = CARTESIAN_POINT ( 'NONE',  ( 94.00000000000000000, 0.000000000000000000, 0.000000000000000000 ) ) ;
#198 = ORIENTED_EDGE ( 'NONE', *, *, #315, .T. ) ;
#199 = CYLINDRICAL_SURFACE ( 'NONE', #1029, 2.999999999999999112 ) ;
#200 = FACE_OUTER_BOUND ( 'NONE', #336, .T. ) ;
#201 = DIRECTION ( 'NONE',  ( -1.000000000000000000, 0.000000000000000000, 0.000000000000000000 ) ) ;
#202 = VERTEX_POINT ( 'NONE', #644 ) ;
#203 = DIRECTION ( 'NONE',  ( 0.000000000000000000, 0.000000000000000000, 1.000000000000000000 ) ) ;
#204 = LOCAL_TIME ( 22, 55, 30.00000000000000000, #1089 ) ;
#205 = CARTESIAN_POINT ( 'NONE',  ( 94.39999999999999147, 50.00000000000023448, 25.00000000000018474 ) ) ;
#206 = DIRECTION ( 'NONE',  ( 0.000000000000000000, 0.000000000000000000, 1.000000000000000000 ) ) ;
#207 = ORIENTED_EDGE ( 'NONE', *, *, #161, .T. ) ;
#208 = ADVANCED_FACE ( 'NONE', ( #820 ), #892, .T. ) ;
#209 = VECTOR ( 'NONE', #82, 1000.000000000000000 ) ;
#210 = CARTESIAN_POINT ( 'NONE',  ( 0.000000000000000000, 0.000000000000000000, 0.000000000000000000 ) ) ;
#211 = DIRECTION ( 'NONE',  ( 0.000000000000000000, 0.000000000000000000, 1.000000000000000000 ) ) ;
#212 = DIRECTION ( 'NONE',  ( 0.000000000000000000, 0.000000000000000000, 1.000000000000000000 ) ) ;
#213 = ORIENTED_EDGE ( 'NONE', *, *, #787, .T. ) ;
#214 = PERSON_AND_ORGANIZATION ( #223, #56 ) ;
#215 = DIRECTION ( 'NONE',  ( 1.000000000000000000, -0.000000000000000000, -0.000000000000000000 ) ) ;
#216 = FACE_OUTER_BOUND ( 'NONE', #930, .T. ) ;
#217 = VERTEX_POINT ( 'NONE', #462 ) ;
#218 = AXIS2_PLACEMENT_3D ( 'NONE', #679, #422, #858 ) ;
#219 = DIRECTION ( 'NONE',  ( 0.000000000000000000, -1.000000000000000000, 0.000000000000000000 ) ) ;
#220 = EDGE_CURVE ( 'NONE', #225, #1035, #479, .T. ) ;
#221 = VERTEX_POINT ( 'NONE', #546 ) ;
#222 = APPROVAL_PERSON_ORGANIZATION ( #157, #58, #774 ) ;
#223 = PERSON ( 'UNSPECIFIED', 'UNSPECIFIED', 'UNSPECIFIED', ('UNSPECIFIED'), ('UNSPECIFIED'), ('UNSPECIFIED') ) ;
#224 = DIRECTION ( 'NONE',  ( -1.000000000000000000, 0.000000000000000000, 0.000000000000000000 ) ) ;
#225 = VERTEX_POINT ( 'NONE', #120 ) ;
#226 = AXIS2_PLACEMENT_3D ( 'NONE', #550, #557, #17 ) ;
#227 = AXIS2_PLACEMENT_3D ( 'NONE', #435, #160, #1134 ) ;
#228 = CYLINDRICAL_SURFACE ( 'NONE', #588, 12.50000000000000000 ) ;
#229 = ADVANCED_FACE ( 'NONE', ( #40 ), #896, .F. ) ;
#230 = CARTESIAN_POINT ( 'NONE',  ( 100.0000000000000000, -20.00000000000000000, 2.458500000000071850 ) ) ;
#231 = ORIENTED_EDGE ( 'NONE', *, *, #545, .T. ) ;
#232 = DIRECTION ( 'NONE',  ( -0.7071067811865479058, 0.7071067811865472397, 8.659560562354930393E-17 ) ) ;
#233 = CARTESIAN_POINT ( 'NONE',  ( 94.00000000000000000, -14.14213562373090127, -14.14213562373087996 ) ) ;
#234 = ORIENTED_EDGE ( 'NONE', *, *, #171, .F. ) ;
#235 = CARTESIAN_POINT ( 'NONE',  ( 94.00000000000000000, 5.551115123125779547E-14, 7.843419788940609499E-14 ) ) ;
#236 = CARTESIAN_POINT ( 'NONE',  ( 100.0000000000000000, 14.14213562373099897, 14.14213562373102029 ) ) ;
#237 = AXIS2_PLACEMENT_3D ( 'NONE', #284, #805, #274 ) ;
#238 = VERTEX_POINT ( 'NONE', #826 ) ;
#239 =( NAMED_UNIT ( * ) SI_UNIT ( $, .STERADIAN. ) SOLID_ANGLE_UNIT ( ) );
#240 = ADVANCED_FACE ( 'NONE', ( #368 ), #815, .T. ) ;
#241 = CARTESIAN_POINT ( 'NONE',  ( 94.16568542494920280, 4.938791723552102544E-14, 25.00000000000007816 ) ) ;
#242 = LINE ( 'NONE', #688, #369 ) ;
#243 = ORIENTED_EDGE ( 'NONE', *, *, #834, .T. ) ;
#244 = PERSON_AND_ORGANIZATION_ROLE ( 'design_owner' ) ;
#245 = CARTESIAN_POINT ( 'NONE',  ( 94.00000000000001421, -50.80000000000008242, -25.40000000000000568 ) ) ;
#246 = ORIENTED_EDGE ( 'NONE', *, *, #545, .F. ) ;
#247 = CARTESIAN_POINT ( 'NONE',  ( 93.00000000000000000, 5.551115123125779547E-14, 12.50000000000007816 ) ) ;
#248 = CYLINDRICAL_SURFACE ( 'NONE', #995, 25.39999999999999858 ) ;
#249 = DIRECTION ( 'NONE',  ( 0.000000000000000000, 0.000000000000000000, 1.000000000000000000 ) ) ;
#250 = ORIENTED_EDGE ( 'NONE', *, *, #968, .F. ) ;
#251 = EDGE_CURVE ( 'NONE', #525, #733, #1107, .T. ) ;
#252 = FACE_OUTER_BOUND ( 'NONE', #487, .T. ) ;
#253 = ORIENTED_EDGE ( 'NONE', *, *, #949, .F. ) ;
#254 = CIRCLE ( 'NONE', #1103, 12.50000000000000000 ) ;
#255 = FACE_BOUND ( 'NONE', #170, .T. ) ;
#256 = VERTEX_POINT ( 'NONE', #849 ) ;
#257 = CIRCLE ( 'NONE', #403, 2.458500000000000796 ) ;
#258 = CARTESIAN_POINT ( 'NONE',  ( 93.00000000000000000, 5.704195973019197851E-14, -12.49999999999992184 ) ) ;
#259 = CIRCLE ( 'NONE', #907, 2.458500000000000796 ) ;
#260 = PRODUCT_DEFINITION ( 'UNKNOWN', '', #363, #529 ) ;
#261 = ORIENTED_EDGE ( 'NONE', *, *, #1108, .F. ) ;
#262 = ORIENTED_EDGE ( 'NONE', *, *, #721, .T. ) ;
#263 = CARTESIAN_POINT ( 'NONE',  ( 94.16568542494920280, -49.99999999999994316, -24.99999999999992895 ) ) ;
#264 = VERTEX_POINT ( 'NONE', #939 ) ;
#265 = CYLINDRICAL_SURFACE ( 'NONE', #227, 25.00000000000000000 ) ;
#266 = LINE ( 'NONE', #515, #43 ) ;
#267 = CARTESIAN_POINT ( 'NONE',  ( 94.00000000000000000, 14.14213562373099897, -16.60063562373088075 ) ) ;
#268 = ORIENTED_EDGE ( 'NONE', *, *, #464, .F. ) ;
#269 = CYLINDRICAL_SURFACE ( 'NONE', #271, 2.458500000000000796 ) ;
#270 = DIRECTION ( 'NONE',  ( -1.000000000000000000, 0.000000000000000000, 0.000000000000000000 ) ) ;
#271 = AXIS2_PLACEMENT_3D ( 'NONE', #378, #366, #633 ) ;
#272 = PRODUCT_RELATED_PRODUCT_CATEGORY ( 'detail', '', ( #1090 ) ) ;
#273 = EDGE_CURVE ( 'NONE', #238, #920, #411, .T. ) ;
#274 = DIRECTION ( 'NONE',  ( 0.000000000000000000, 0.000000000000000000, 1.000000000000000000 ) ) ;
#275 = DIRECTION ( 'NONE',  ( 0.000000000000000000, 0.000000000000000000, 1.000000000000000000 ) ) ;
#276 = CLOSED_SHELL ( 'NONE', ( #580, #102, #428, #749, #1043, #647, #195, #776, #507, #714, #450, #19, #357, #117, #1000, #924, #868, #471, #52, #818, #477, #619, #177, #70, #377, #874, #229, #320, #410, #676, #208, #754, #240, #333, #825, #1037, #1075, #803, #600 ) ) ;
#277 = DIRECTION ( 'NONE',  ( 0.000000000000000000, 0.000000000000000000, -1.000000000000000000 ) ) ;
#278 = AXIS2_PLACEMENT_3D ( 'NONE', #756, #1024, #305 ) ;
#279 = EDGE_LOOP ( 'NONE', ( #664, #295, #1058, #993 ) ) ;
#280 = DIRECTION ( 'NONE',  ( 0.000000000000000000, 0.000000000000000000, 1.000000000000000000 ) ) ;
#281 = LINE ( 'NONE', #973, #737 ) ;
#282 = CARTESIAN_POINT ( 'NONE',  ( 94.00000000000000000, 5.551115123125779547E-14, 12.50000000000007816 ) ) ;
#283 = ORIENTED_EDGE ( 'NONE', *, *, #613, .T. ) ;
#284 = CARTESIAN_POINT ( 'NONE',  ( 99.50000000000000000, 5.551115123125779547E-14, 7.843419788940609499E-14 ) ) ;
#285 = DIRECTION ( 'NONE',  ( 1.000000000000000000, 0.000000000000000000, 0.000000000000000000 ) ) ;
#286 = CC_DESIGN_PERSON_AND_ORGANIZATION_ASSIGNMENT ( #7, #337, ( #363 ) ) ;
#287 = EDGE_CURVE ( 'NONE', #926, #221, #257, .T. ) ;
#288 = DIRECTION ( 'NONE',  ( 0.000000000000000000, 0.000000000000000000, -1.000000000000000000 ) ) ;
#289 = VERTEX_POINT ( 'NONE', #498 ) ;
#290 = COORDINATED_UNIVERSAL_TIME_OFFSET ( 7, 0, .AHEAD. ) ;
#291 = AXIS2_PLACEMENT_3D ( 'NONE', #110, #1074, #445 ) ;
#292 = CARTESIAN_POINT ( 'NONE',  ( 100.0000000000000000, 14.14213562373099897, 16.60063562373101931 ) ) ;
#293 = CYLINDRICAL_SURFACE ( 'NONE', #1072, 2.458500000000000796 ) ;
#294 = EDGE_CURVE ( 'NONE', #713, #733, #486, .T. ) ;
#295 = ORIENTED_EDGE ( 'NONE', *, *, #1020, .F. ) ;
#296 = AXIS2_PLACEMENT_3D ( 'NONE', #1051, #13, #79 ) ;
#297 = CALENDAR_DATE ( 2025, 12, 11 ) ;
#298 = CARTESIAN_POINT ( 'NONE',  ( 94.00000000000000000, 5.551115123125779547E-14, 20.00000000000000000 ) ) ;
#299 = CARTESIAN_POINT ( 'NONE',  ( 100.0000000000000000, 6.591949208711869483E-14, -20.00000000000000000 ) ) ;
#300 = ORIENTED_EDGE ( 'NONE', *, *, #315, .F. ) ;
#301 = EDGE_CURVE ( 'NONE', #125, #329, #66, .T. ) ;
#302 = DIRECTION ( 'NONE',  ( 1.000000000000000000, -0.000000000000000000, -0.000000000000000000 ) ) ;
#303 = CARTESIAN_POINT ( 'NONE',  ( 94.00000000000000000, -20.00000000000000000, -2.458499999999928409 ) ) ;
#304 = EDGE_LOOP ( 'NONE', ( #1082, #765, #492, #456 ) ) ;
#305 = DIRECTION ( 'NONE',  ( 0.000000000000000000, 0.000000000000000000, -1.000000000000000000 ) ) ;
#306 = EDGE_LOOP ( 'NONE', ( #430, #1004 ) ) ;
#307 = EDGE_CURVE ( 'NONE', #451, #769, #1009, .T. ) ;
#308 = AXIS2_PLACEMENT_3D ( 'NONE', #21, #636, #100 ) ;
#309 = FACE_OUTER_BOUND ( 'NONE', #1094, .T. ) ;
#310 = CC_DESIGN_APPROVAL ( #493, ( #363 ) ) ;
#311 = CARTESIAN_POINT ( 'NONE',  ( 99.50000000000000000, -24.99999999999994671, 7.806255641895631925E-14 ) ) ;
#312 = ORIENTED_EDGE ( 'NONE', *, *, #96, .F. ) ;
#313 = CIRCLE ( 'NONE', #1052, 2.458500000000002572 ) ;
#314 = FACE_OUTER_BOUND ( 'NONE', #1078, .T. ) ;
#315 = EDGE_CURVE ( 'NONE', #528, #592, #838, .T. ) ;
#316 = DIRECTION ( 'NONE',  ( 0.000000000000000000, 1.224646799147285661E-16, -1.000000000000000000 ) ) ;
#317 = ORIENTED_EDGE ( 'NONE', *, *, #420, .F. ) ;
#318 = DIRECTION ( 'NONE',  ( 0.000000000000000000, 0.000000000000000000, 1.000000000000000000 ) ) ;
#319 = DIRECTION ( 'NONE',  ( -1.000000000000000000, 0.000000000000000000, 0.000000000000000000 ) ) ;
#320 = ADVANCED_FACE ( 'NONE', ( #650 ), #128, .F. ) ;
#321 = VERTEX_POINT ( 'NONE', #1102 ) ;
#322 = DIRECTION ( 'NONE',  ( 0.000000000000000000, 0.000000000000000000, 1.000000000000000000 ) ) ;
#323 = CARTESIAN_POINT ( 'NONE',  ( 94.16568542494920280, -49.99999999999994316, 25.00000000000006750 ) ) ;
#324 = AXIS2_PLACEMENT_3D ( 'NONE', #589, #215, #578 ) ;
#325 = AXIS2_PLACEMENT_3D ( 'NONE', #675, #652, #1096 ) ;
#326 = DIRECTION ( 'NONE',  ( -1.000000000000000000, 0.000000000000000000, 0.000000000000000000 ) ) ;
#327 = EDGE_LOOP ( 'NONE', ( #351, #449 ) ) ;
#328 = FACE_BOUND ( 'NONE', #821, .T. ) ;
#329 = VERTEX_POINT ( 'NONE', #311 ) ;
#330 = CARTESIAN_POINT ( 'NONE',  ( 94.00000000000000000, 0.000000000000000000, 0.000000000000000000 ) ) ;
#331 = FACE_OUTER_BOUND ( 'NONE', #189, .T. ) ;
#332 = COORDINATED_UNIVERSAL_TIME_OFFSET ( 7, 0, .AHEAD. ) ;
#333 = ADVANCED_FACE ( 'NONE', ( #925 ), #918, .T. ) ;
#334 = CARTESIAN_POINT ( 'NONE',  ( 94.00000000000001421, -50.80000000000008242, 25.40000000000014424 ) ) ;
#335 = CYLINDRICAL_SURFACE ( 'NONE', #813, 2.999999999999999112 ) ;
#336 = EDGE_LOOP ( 'NONE', ( #889, #402, #539, #463 ) ) ;
#337 = PERSON_AND_ORGANIZATION_ROLE ( 'design_supplier' ) ;
#338 = DIRECTION ( 'NONE',  ( 0.000000000000000000, 0.000000000000000000, -1.000000000000000000 ) ) ;
#339 = EDGE_CURVE ( 'NONE', #18, #1016, #1019, .T. ) ;
#340 = ORIENTED_EDGE ( 'NONE', *, *, #521, .F. ) ;
#341 = DIRECTION ( 'NONE',  ( -1.000000000000000000, 0.000000000000000000, 0.000000000000000000 ) ) ;
#342 = DIRECTION ( 'NONE',  ( 1.000000000000000000, -0.000000000000000000, -0.000000000000000000 ) ) ;
#343 = VECTOR ( 'NONE', #537, 1000.000000000000000 ) ;
#344 = PERSON_AND_ORGANIZATION_ROLE ( 'classification_officer' ) ;
#345 = CIRCLE ( 'NONE', #1122, 0.4000000000000010214 ) ;
#346 = DIRECTION ( 'NONE',  ( 0.000000000000000000, 0.000000000000000000, 1.000000000000000000 ) ) ;
#347 = VERTEX_POINT ( 'NONE', #662 ) ;
#348 = AXIS2_PLACEMENT_3D ( 'NONE', #879, #703, #426 ) ;
#349 = FACE_OUTER_BOUND ( 'NONE', #1039, .T. ) ;
#350 = CIRCLE ( 'NONE', #996, 25.39999999999999858 ) ;
#351 = ORIENTED_EDGE ( 'NONE', *, *, #1020, .T. ) ;
#352 = CARTESIAN_POINT ( 'NONE',  ( 100.0000000000000000, 14.14213562373099897, 16.60063562373101931 ) ) ;
#353 = ORIENTED_EDGE ( 'NONE', *, *, #394, .F. ) ;
#354 = CARTESIAN_POINT ( 'NONE',  ( 94.00000000000001421, 50.80000000000038085, 25.40000000000026503 ) ) ;
#355 = APPROVAL ( #176, 'UNSPECIFIED' ) ;
#356 = CARTESIAN_POINT ( 'NONE',  ( 100.0000000000000000, -20.00000000000000000, -2.458499999999928409 ) ) ;
#357 = ADVANCED_FACE ( 'NONE', ( #503 ), #44, .F. ) ;
#358 = CARTESIAN_POINT ( 'NONE',  ( -95.50000000000000000, 0.000000000000000000, 0.000000000000000000 ) ) ;
#359 = DIRECTION ( 'NONE',  ( 1.000000000000000000, -0.000000000000000000, -0.000000000000000000 ) ) ;
#360 = FACE_OUTER_BOUND ( 'NONE', #614, .T. ) ;
#361 = CIRCLE ( 'NONE', #237, 25.00000000000000000 ) ;
#362 = ORIENTED_EDGE ( 'NONE', *, *, #627, .T. ) ;
#363 = PRODUCT_DEFINITION_FORMATION_WITH_SPECIFIED_SOURCE ( 'ANY', '', #1090, .NOT_KNOWN. ) ;
#364 = EDGE_CURVE ( 'NONE', #289, #1008, #684, .T. ) ;
#365 = LINE ( 'NONE', #194, #1085 ) ;
#366 = DIRECTION ( 'NONE',  ( -1.000000000000000000, 0.000000000000000000, 0.000000000000000000 ) ) ;
#367 = CIRCLE ( 'NONE', #388, 2.458500000000000796 ) ;
#368 = FACE_OUTER_BOUND ( 'NONE', #960, .T. ) ;
#369 = VECTOR ( 'NONE', #326, 1000.000000000000000 ) ;
#370 = ORIENTED_EDGE ( 'NONE', *, *, #1121, .T. ) ;
#371 = DIRECTION ( 'NONE',  ( 1.000000000000000000, 0.000000000000000000, 0.000000000000000000 ) ) ;
#372 = EDGE_CURVE ( 'NONE', #217, #727, #1109, .T. ) ;
#373 = DIRECTION ( 'NONE',  ( -1.000000000000000000, 0.000000000000000000, 0.000000000000000000 ) ) ;
#374 = CARTESIAN_POINT ( 'NONE',  ( 94.00000000000000000, 5.551115123125779547E-14, 7.843419788940609499E-14 ) ) ;
#375 = VERTEX_POINT ( 'NONE', #491 ) ;
#376 = CARTESIAN_POINT ( 'NONE',  ( 100.0000000000000000, -20.00000000000000000, 7.149530398549889186E-14 ) ) ;
#377 = ADVANCED_FACE ( 'NONE', ( #216 ), #673, .F. ) ;
#378 = CARTESIAN_POINT ( 'NONE',  ( 100.0000000000000000, -14.14213562373090127, 14.14213562373102029 ) ) ;
#379 = DIRECTION ( 'NONE',  ( 0.000000000000000000, 0.000000000000000000, 1.000000000000000000 ) ) ;
#380 = EDGE_LOOP ( 'NONE', ( #412, #816 ) ) ;
#381 = CIRCLE ( 'NONE', #1027, 24.99999999999999289 ) ;
#382 = CALENDAR_DATE ( 2025, 12, 11 ) ;
#383 = AXIS2_PLACEMENT_3D ( 'NONE', #864, #74, #690 ) ;
#384 = LOCAL_TIME ( 22, 55, 30.00000000000000000, #183 ) ;
#385 = DIRECTION ( 'NONE',  ( 0.7071067811865475727, 8.659560562354931626E-17, 0.7071067811865474617 ) ) ;
#386 = MANIFOLD_SOLID_BREP ( 'Importée1', #276 ) ;
#387 = CARTESIAN_POINT ( 'NONE',  ( 100.0000000000000000, 14.14213562373099897, -14.14213562373087996 ) ) ;
#388 = AXIS2_PLACEMENT_3D ( 'NONE', #387, #201, #736 ) ;
#389 = ORIENTED_EDGE ( 'NONE', *, *, #984, .F. ) ;
#390 = ORIENTED_EDGE ( 'NONE', *, *, #911, .F. ) ;
#391 = DIRECTION ( 'NONE',  ( 0.000000000000000000, 0.000000000000000000, 1.000000000000000000 ) ) ;
#392 = CARTESIAN_POINT ( 'NONE',  ( 100.0000000000000000, -14.14213562373090127, -14.14213562373087996 ) ) ;
#393 = EDGE_LOOP ( 'NONE', ( #687, #553 ) ) ;
#394 = EDGE_CURVE ( 'NONE', #920, #1035, #25, .T. ) ;
#395 = CARTESIAN_POINT ( 'NONE',  ( 94.00000000000000000, 5.551115123125779547E-14, 7.843419788940609499E-14 ) ) ;
#396 = DIRECTION ( 'NONE',  ( 0.000000000000000000, 0.000000000000000000, 1.000000000000000000 ) ) ;
#397 = ORIENTED_EDGE ( 'NONE', *, *, #890, .F. ) ;
#398 = CONICAL_SURFACE ( 'NONE', #678, 25.00000000000000000, 0.7853981633974482790 ) ;
#399 = CARTESIAN_POINT ( 'NONE',  ( 100.0000000000000000, 14.14213562373099897, -14.14213562373087996 ) ) ;
#400 = AXIS2_PLACEMENT_3D ( 'NONE', #1005, #1028, #469 ) ;
#401 = DIRECTION ( 'NONE',  ( -1.000000000000000000, 0.000000000000000000, 0.000000000000000000 ) ) ;
#402 = ORIENTED_EDGE ( 'NONE', *, *, #394, .T. ) ;
#403 = AXIS2_PLACEMENT_3D ( 'NONE', #236, #319, #584 ) ;
#404 = VECTOR ( 'NONE', #944, 1000.000000000000000 ) ;
#405 = DIRECTION ( 'NONE',  ( 0.000000000000000000, 0.000000000000000000, 1.000000000000000000 ) ) ;
#406 = EDGE_CURVE ( 'NONE', #713, #67, #558, .T. ) ;
#407 = DIRECTION ( 'NONE',  ( 1.000000000000000000, 0.000000000000000000, 0.000000000000000000 ) ) ;
#408 = ORIENTED_EDGE ( 'NONE', *, *, #700, .T. ) ;
#409 = FACE_BOUND ( 'NONE', #306, .T. ) ;
#410 = ADVANCED_FACE ( 'NONE', ( #1114 ), #958, .F. ) ;
#411 = LINE ( 'NONE', #150, #115 ) ;
#412 = ORIENTED_EDGE ( 'NONE', *, *, #190, .T. ) ;
#413 = PERSON_AND_ORGANIZATION ( #223, #56 ) ;
#414 = FACE_OUTER_BOUND ( 'NONE', #934, .T. ) ;
#415 = ORIENTED_EDGE ( 'NONE', *, *, #936, .F. ) ;
#416 = AXIS2_PLACEMENT_3D ( 'NONE', #1048, #554, #880 ) ;
#417 = CARTESIAN_POINT ( 'NONE',  ( 99.50000000000000000, 5.551115123125779547E-14, 25.00000000000008171 ) ) ;
#418 = DIRECTION ( 'NONE',  ( 0.000000000000000000, 0.000000000000000000, 1.000000000000000000 ) ) ;
#419 = DIRECTION ( 'NONE',  ( 0.000000000000000000, 0.000000000000000000, 1.000000000000000000 ) ) ;
#420 = EDGE_CURVE ( 'NONE', #238, #329, #61, .T. ) ;
#421 = AXIS2_PLACEMENT_3D ( 'NONE', #867, #689, #1041 ) ;
#422 = DIRECTION ( 'NONE',  ( -1.000000000000000000, -0.000000000000000000, -0.000000000000000000 ) ) ;
#423 = CIRCLE ( 'NONE', #169, 25.39999999999999858 ) ;
#424 = ORIENTED_EDGE ( 'NONE', *, *, #613, .F. ) ;
#425 = DIRECTION ( 'NONE',  ( -1.000000000000000000, 0.000000000000000000, 0.000000000000000000 ) ) ;
#426 = DIRECTION ( 'NONE',  ( 0.000000000000000000, 0.000000000000000000, 1.000000000000000000 ) ) ;
#427 = CC_DESIGN_DATE_AND_TIME_ASSIGNMENT ( #648, #1001, ( #260 ) ) ;
#428 = ADVANCED_FACE ( 'NONE', ( #349 ), #596, .T. ) ;
#429 = DIRECTION ( 'NONE',  ( 1.000000000000000000, -0.000000000000000000, -0.000000000000000000 ) ) ;
#430 = ORIENTED_EDGE ( 'NONE', *, *, #287, .T. ) ;
#431 = CARTESIAN_POINT ( 'NONE',  ( 93.00000000000000000, 5.551115123125779547E-14, 7.843419788940609499E-14 ) ) ;
#432 = CARTESIAN_POINT ( 'NONE',  ( 99.50000000000000000, 5.551115123125779547E-14, 7.843419788940609499E-14 ) ) ;
#433 = CARTESIAN_POINT ( 'NONE',  ( 100.0000000000000000, -14.14213562373090127, 16.60063562373101931 ) ) ;
#434 = ORIENTED_EDGE ( 'NONE', *, *, #660, .F. ) ;
#435 = CARTESIAN_POINT ( 'NONE',  ( 93.00000000000000000, 5.551115123125779547E-14, 7.843419788940609499E-14 ) ) ;
#436 = AXIS2_PLACEMENT_3D ( 'NONE', #1062, #285, #28 ) ;
#437 = CARTESIAN_POINT ( 'NONE',  ( 100.0000000000000000, 20.00000000000000000, 2.458500000000078956 ) ) ;
#438 = CIRCLE ( 'NONE', #512, 24.50000000000000000 ) ;
#439 = FACE_OUTER_BOUND ( 'NONE', #967, .T. ) ;
#440 = VERTEX_POINT ( 'NONE', #530 ) ;
#441 = EDGE_CURVE ( 'NONE', #11, #1035, #790, .T. ) ;
#442 = CARTESIAN_POINT ( 'NONE',  ( 84.99999999999998579, 3.110602869834276865E-15, 25.39999999999999858 ) ) ;
#443 = CARTESIAN_POINT ( 'NONE',  ( 100.0000000000000000, 20.00000000000000000, 7.669947441342928790E-14 ) ) ;
#444 = PERSON_AND_ORGANIZATION_ROLE ( 'creator' ) ;
#445 = DIRECTION ( 'NONE',  ( 0.000000000000000000, 0.000000000000000000, 1.000000000000000000 ) ) ;
#446 = CARTESIAN_POINT ( 'NONE',  ( 94.16568542494920280, 50.00000000000022027, -25.00000000000003908 ) ) ;
#447 = CARTESIAN_POINT ( 'NONE',  ( 100.0000000000000000, 20.00000000000000000, -2.458499999999925745 ) ) ;
#448 = SECURITY_CLASSIFICATION_LEVEL ( 'unclassified' ) ;
#449 = ORIENTED_EDGE ( 'NONE', *, *, #931, .T. ) ;
#450 = ADVANCED_FACE ( 'NONE', ( #181 ), #950, .F. ) ;
#451 = VERTEX_POINT ( 'NONE', #174 ) ;
#452 = LINE ( 'NONE', #542, #495 ) ;
#453 = FACE_OUTER_BOUND ( 'NONE', #865, .T. ) ;
#454 = DIRECTION ( 'NONE',  ( -1.000000000000000000, 0.000000000000000000, 0.000000000000000000 ) ) ;
#455 = CIRCLE ( 'NONE', #185, 2.458500000000000796 ) ;
#456 = ORIENTED_EDGE ( 'NONE', *, *, #586, .F. ) ;
#457 = EDGE_CURVE ( 'NONE', #835, #656, #779, .T. ) ;
#458 = VERTEX_POINT ( 'NONE', #784 ) ;
#459 = DIRECTION ( 'NONE',  ( 0.000000000000000000, 0.000000000000000000, -1.000000000000000000 ) ) ;
#460 = CARTESIAN_POINT ( 'NONE',  ( 100.0000000000000000, -14.14213562373090127, -11.68363562373087916 ) ) ;
#461 = AXIS2_PLACEMENT_3D ( 'NONE', #374, #730, #751 ) ;
#462 = CARTESIAN_POINT ( 'NONE',  ( 100.0000000000000000, 6.591949208711869483E-14, -17.54150000000000276 ) ) ;
#463 = ORIENTED_EDGE ( 'NONE', *, *, #1131, .F. ) ;
#464 = EDGE_CURVE ( 'NONE', #1035, #225, #423, .T. ) ;
#465 = DIRECTION ( 'NONE',  ( 0.000000000000000000, 0.000000000000000000, -1.000000000000000000 ) ) ;
#466 = CARTESIAN_POINT ( 'NONE',  ( 94.39999999999999147, 50.00000000000023448, -25.00000000000003553 ) ) ;
#467 = CARTESIAN_POINT ( 'NONE',  ( 100.0000000000000000, 5.551115123125779547E-14, 20.00000000000000000 ) ) ;
#468 = EDGE_LOOP ( 'NONE', ( #873, #250, #804, #166 ) ) ;
#469 = DIRECTION ( 'NONE',  ( 0.000000000000000000, 0.000000000000000000, 1.000000000000000000 ) ) ;
#470 = CARTESIAN_POINT ( 'NONE',  ( 94.00000000000000000, -14.14213562373090127, -16.60063562373088075 ) ) ;
#471 = ADVANCED_FACE ( 'NONE', ( #69 ), #265, .T. ) ;
#472 = CARTESIAN_POINT ( 'NONE',  ( 100.0000000000000000, 14.14213562373099897, 14.14213562373102029 ) ) ;
#473 = ORIENTED_EDGE ( 'NONE', *, *, #822, .T. ) ;
#474 = MECHANICAL_CONTEXT ( 'NONE', #841, 'mechanical' ) ;
#475 = LOCAL_TIME ( 22, 55, 30.00000000000000000, #893 ) ;
#476 = DIRECTION ( 'NONE',  ( 0.000000000000000000, 0.000000000000000000, -1.000000000000000000 ) ) ;
#477 = ADVANCED_FACE ( 'NONE', ( #701 ), #335, .F. ) ;
#478 = DIRECTION ( 'NONE',  ( 0.000000000000000000, 0.000000000000000000, 1.000000000000000000 ) ) ;
#479 = CIRCLE ( 'NONE', #517, 25.39999999999999858 ) ;
#480 = EDGE_LOOP ( 'NONE', ( #424, #692, #362, #1065 ) ) ;
#481 = AXIS2_PLACEMENT_3D ( 'NONE', #747, #143, #573 ) ;
#482 = ADVANCED_BREP_SHAPE_REPRESENTATION ( 'M-20iA35M axis6-M-20iA35M_D\X2\00e9\X0\faut_sldprt', ( #386, #91 ), #1047 ) ;
#483 = CARTESIAN_POINT ( 'NONE',  ( 100.0000000000000000, 5.551115123125779547E-14, 23.00000000000000000 ) ) ;
#484 = DIRECTION ( 'NONE',  ( -1.000000000000000000, 0.000000000000000000, 0.000000000000000000 ) ) ;
#485 = ORIENTED_EDGE ( 'NONE', *, *, #494, .T. ) ;
#486 = LINE ( 'NONE', #669, #556 ) ;
#487 = EDGE_LOOP ( 'NONE', ( #1115, #706, #682, #674 ) ) ;
#488 = EDGE_CURVE ( 'NONE', #769, #744, #869, .T. ) ;
#489 = CARTESIAN_POINT ( 'NONE',  ( 100.0000000000000000, 5.564992910933594635E-14, 7.806255641895631925E-14 ) ) ;
#490 = EDGE_LOOP ( 'NONE', ( #999, #133 ) ) ;
#491 = CARTESIAN_POINT ( 'NONE',  ( 100.0000000000000000, -14.14213562373090127, 11.68363562373101949 ) ) ;
#492 = ORIENTED_EDGE ( 'NONE', *, *, #251, .F. ) ;
#493 = APPROVAL ( #564, 'UNSPECIFIED' ) ;
#494 = EDGE_CURVE ( 'NONE', #375, #523, #242, .T. ) ;
#495 = VECTOR ( 'NONE', #812, 1000.000000000000000 ) ;
#496 = FACE_BOUND ( 'NONE', #20, .T. ) ;
#497 = SECURITY_CLASSIFICATION ( '', '', #448 ) ;
#498 = CARTESIAN_POINT ( 'NONE',  ( 94.00000000000000000, 14.14213562373099897, -11.68363562373087916 ) ) ;
#499 = ORIENTED_EDGE ( 'NONE', *, *, #1121, .F. ) ;
#500 = AXIS2_PLACEMENT_3D ( 'NONE', #729, #549, #275 ) ;
#501 = EDGE_CURVE ( 'NONE', #829, #375, #259, .T. ) ;
#502 = DIRECTION ( 'NONE',  ( 1.000000000000000000, 0.000000000000000000, 0.000000000000000000 ) ) ;
#503 = FACE_OUTER_BOUND ( 'NONE', #109, .T. ) ;
#504 = EDGE_LOOP ( 'NONE', ( #572, #964, #694, #198, #1071 ) ) ;
#505 = DIRECTION ( 'NONE',  ( 1.000000000000000000, -0.000000000000000000, -0.000000000000000000 ) ) ;
#506 = CARTESIAN_POINT ( 'NONE',  ( 94.00000000000000000, 14.14213562373099897, 16.60063562373101931 ) ) ;
#507 = ADVANCED_FACE ( 'NONE', ( #252 ), #508, .F. ) ;
#508 = CYLINDRICAL_SURFACE ( 'NONE', #724, 2.458500000000000796 ) ;
#509 = ORIENTED_EDGE ( 'NONE', *, *, #1059, .T. ) ;
#510 = FACE_OUTER_BOUND ( 'NONE', #480, .T. ) ;
#511 = ORIENTED_EDGE ( 'NONE', *, *, #171, .T. ) ;
#512 = AXIS2_PLACEMENT_3D ( 'NONE', #489, #832, #666 ) ;
#513 = CARTESIAN_POINT ( 'NONE',  ( 100.0000000000000000, 5.551115123125779547E-14, 7.806255641895631925E-14 ) ) ;
#514 = EDGE_CURVE ( 'NONE', #835, #903, #965, .T. ) ;
#515 = CARTESIAN_POINT ( 'NONE',  ( 100.0000000000000000, -20.00000000000000000, -2.458499999999928409 ) ) ;
#516 = CALENDAR_DATE ( 2025, 12, 11 ) ;
#517 = AXIS2_PLACEMENT_3D ( 'NONE', #197, #124, #288 ) ;
#518 = CARTESIAN_POINT ( 'NONE',  ( 94.40000000000000568, -49.99999999999993605, 25.00000000000006395 ) ) ;
#519 = CARTESIAN_POINT ( 'NONE',  ( 100.0000000000000000, 5.551115123125779547E-14, -12.99999999999992362 ) ) ;
#520 = ORIENTED_EDGE ( 'NONE', *, *, #1059, .F. ) ;
#521 = EDGE_CURVE ( 'NONE', #595, #11, #350, .T. ) ;
#522 = DIRECTION ( 'NONE',  ( 1.000000000000000000, 0.000000000000000000, 0.000000000000000000 ) ) ;
#523 = VERTEX_POINT ( 'NONE', #1033 ) ;
#524 = CARTESIAN_POINT ( 'NONE',  ( 84.99999999999998579, 0.000000000000000000, 0.000000000000000000 ) ) ;
#525 = VERTEX_POINT ( 'NONE', #859 ) ;
#526 = EDGE_CURVE ( 'NONE', #256, #145, #1040, .T. ) ;
#527 = DIRECTION ( 'NONE',  ( -1.000000000000000000, 0.000000000000000000, 0.000000000000000000 ) ) ;
#528 = VERTEX_POINT ( 'NONE', #417 ) ;
#529 = DESIGN_CONTEXT ( 'detailed design', #88, 'design' ) ;
#530 = CARTESIAN_POINT ( 'NONE',  ( 94.00000000000000000, 5.587854527100200722E-14, 17.00000000000000000 ) ) ;
#531 = CIRCLE ( 'NONE', #35, 2.458500000000000796 ) ;
#532 = DIRECTION ( 'NONE',  ( 0.000000000000000000, -1.000000000000000000, 0.000000000000000000 ) ) ;
#533 = CIRCLE ( 'NONE', #789, 2.458500000000000796 ) ;
#534 = DATE_AND_TIME ( #885, #384 ) ;
#535 = CIRCLE ( 'NONE', #830, 12.50000000000000000 ) ;
#536 = VERTEX_POINT ( 'NONE', #895 ) ;
#537 = DIRECTION ( 'NONE',  ( 1.000000000000000000, -0.000000000000000000, -0.000000000000000000 ) ) ;
#538 = AXIS2_PLACEMENT_3D ( 'NONE', #541, #998, #902 ) ;
#539 = ORIENTED_EDGE ( 'NONE', *, *, #220, .F. ) ;
#540 = DIRECTION ( 'NONE',  ( 0.000000000000000000, 0.000000000000000000, 1.000000000000000000 ) ) ;
#541 = CARTESIAN_POINT ( 'NONE',  ( 99.50000000000000000, 5.551115123125779547E-14, 7.843419788940609499E-14 ) ) ;
#542 = CARTESIAN_POINT ( 'NONE',  ( 100.0000000000000000, 14.14213562373099897, 11.68363562373101949 ) ) ;
#543 = ORIENTED_EDGE ( 'NONE', *, *, #464, .T. ) ;
#544 = CARTESIAN_POINT ( 'NONE',  ( 94.39999999999999147, -8.741913579724640446E-16, -24.99999999999992184 ) ) ;
#545 = EDGE_CURVE ( 'NONE', #264, #18, #8, .T. ) ;
#546 = CARTESIAN_POINT ( 'NONE',  ( 100.0000000000000000, 14.14213562373099897, 11.68363562373101949 ) ) ;
#547 = ORIENTED_EDGE ( 'NONE', *, *, #721, .F. ) ;
#548 = CARTESIAN_POINT ( 'NONE',  ( 100.0000000000000000, 5.551115123125779547E-14, 20.00000000000000000 ) ) ;
#549 = DIRECTION ( 'NONE',  ( -1.000000000000000000, 0.000000000000000000, 0.000000000000000000 ) ) ;
#550 = CARTESIAN_POINT ( 'NONE',  ( 94.00000000000000000, -14.14213562373090127, 14.14213562373102029 ) ) ;
#551 = EDGE_CURVE ( 'NONE', #1016, #773, #587, .T. ) ;
#552 = CIRCLE ( 'NONE', #919, 2.458499999999999019 ) ;
#553 = ORIENTED_EDGE ( 'NONE', *, *, #96, .T. ) ;
#554 = DIRECTION ( 'NONE',  ( 1.000000000000000000, -0.000000000000000000, -0.000000000000000000 ) ) ;
#555 = CARTESIAN_POINT ( 'NONE',  ( 93.99999999999994316, -1.247880535884757576E-15, -25.16568542494920280 ) ) ;
#556 = VECTOR ( 'NONE', #933, 1000.000000000000000 ) ;
#557 = DIRECTION ( 'NONE',  ( 1.000000000000000000, -0.000000000000000000, -0.000000000000000000 ) ) ;
#558 = CIRCLE ( 'NONE', #977, 2.458500000000000796 ) ;
#559 = ORIENTED_EDGE ( 'NONE', *, *, #911, .T. ) ;
#560 = PERSON_AND_ORGANIZATION ( #223, #56 ) ;
#561 = CYLINDRICAL_SURFACE ( 'NONE', #716, 2.458500000000000796 ) ;
#562 = DIRECTION ( 'NONE',  ( 0.000000000000000000, 0.000000000000000000, -1.000000000000000000 ) ) ;
#563 = ORIENTED_EDGE ( 'NONE', *, *, #39, .T. ) ;
#564 = APPROVAL_STATUS ( 'not_yet_approved' ) ;
#565 = EDGE_CURVE ( 'NONE', #926, #843, #913, .T. ) ;
#566 = FACE_OUTER_BOUND ( 'NONE', #601, .T. ) ;
#567 = DIRECTION ( 'NONE',  ( -1.000000000000000000, 0.000000000000000000, 0.000000000000000000 ) ) ;
#568 = EDGE_LOOP ( 'NONE', ( #839, #610, #616, #691 ) ) ;
#569 = AXIS2_PLACEMENT_3D ( 'NONE', #358, #899, #459 ) ;
#570 = APPLICATION_PROTOCOL_DEFINITION ( 'international standard', 'config_control_design', 1994, #841 ) ;
#571 = DIRECTION ( 'NONE',  ( 0.000000000000000000, 0.000000000000000000, 1.000000000000000000 ) ) ;
#572 = ORIENTED_EDGE ( 'NONE', *, *, #273, .F. ) ;
#573 = DIRECTION ( 'NONE',  ( 0.000000000000000000, 0.000000000000000000, 1.000000000000000000 ) ) ;
#574 = AXIS2_PLACEMENT_3D ( 'NONE', #802, #743, #562 ) ;
#575 = ORIENTED_EDGE ( 'NONE', *, *, #551, .F. ) ;
#576 = AXIS2_PLACEMENT_3D ( 'NONE', #513, #1050, #611 ) ;
#577 = ORIENTED_EDGE ( 'NONE', *, *, #39, .F. ) ;
#578 = DIRECTION ( 'NONE',  ( 0.000000000000000000, 0.000000000000000000, 1.000000000000000000 ) ) ;
#579 = DIRECTION ( 'NONE',  ( 0.000000000000000000, 0.000000000000000000, -1.000000000000000000 ) ) ;
#580 = ADVANCED_FACE ( 'NONE', ( #200 ), #658, .F. ) ;
#581 = ORIENTED_EDGE ( 'NONE', *, *, #1131, .T. ) ;
#582 =( BOUNDED_SURFACE ( )  B_SPLINE_SURFACE ( 3, 3, ( 
 ( #705, #1117, #518, #875 ),
 ( #1132, #263, #323, #241 ),
 ( #786, #777, #2, #1124 ),
 ( #1038, #245, #334, #599 ) ),
 .UNSPECIFIED., .F., .F., .F. ) 
 B_SPLINE_SURFACE_WITH_KNOTS ( ( 4, 4 ),
 ( 4, 4 ),
 ( 0.000000000000000000, 1.000000000000000000 ),
 ( 0.000000000000000000, 1.000000000000000000 ),
 .UNSPECIFIED. ) 
 GEOMETRIC_REPRESENTATION_ITEM ( )  RATIONAL_B_SPLINE_SURFACE ( (
 ( 1.000000000000000000, 0.3333333333333334259, 0.3333333333333334259, 1.000000000000000000),
 ( 0.8047378541243199734, 0.2682459513747734170, 0.2682459513747734170, 0.8047378541243199734),
 ( 0.8047378541243199734, 0.2682459513747734170, 0.2682459513747734170, 0.8047378541243199734),
 ( 1.000000000000000000, 0.3333333333333334259, 0.3333333333333334259, 1.000000000000000000) ) ) 
 REPRESENTATION_ITEM ( '' )  SURFACE ( )  );
#583 = PLANE ( 'NONE',  #953 ) ;
#584 = DIRECTION ( 'NONE',  ( 0.000000000000000000, 0.000000000000000000, 1.000000000000000000 ) ) ;
#585 = EDGE_LOOP ( 'NONE', ( #762, #49 ) ) ;
#586 = EDGE_CURVE ( 'NONE', #67, #525, #712, .T. ) ;
#587 = CIRCLE ( 'NONE', #1101, 2.458500000000002572 ) ;
#588 = AXIS2_PLACEMENT_3D ( 'NONE', #755, #750, #1106 ) ;
#589 = CARTESIAN_POINT ( 'NONE',  ( 94.00000000000000000, 14.14213562373099897, 14.14213562373102029 ) ) ;
#590 = APPROVAL_PERSON_ORGANIZATION ( #214, #493, #916 ) ;
#591 = DIRECTION ( 'NONE',  ( -1.000000000000000000, 0.000000000000000000, 0.000000000000000000 ) ) ;
#592 = VERTEX_POINT ( 'NONE', #1080 ) ;
#593 = AXIS2_PLACEMENT_3D ( 'NONE', #726, #1077, #379 ) ;
#594 = DIRECTION ( 'NONE',  ( 0.000000000000000000, 0.000000000000000000, -1.000000000000000000 ) ) ;
#595 = VERTEX_POINT ( 'NONE', #442 ) ;
#596 = CYLINDRICAL_SURFACE ( 'NONE', #665, 25.00000000000000000 ) ;
#597 = CARTESIAN_POINT ( 'NONE',  ( 100.0000000000000000, 20.00000000000000000, 7.669947441342928790E-14 ) ) ;
#598 = APPLICATION_PROTOCOL_DEFINITION ( 'international standard', 'config_control_design', 1994, #88 ) ;
#599 = CARTESIAN_POINT ( 'NONE',  ( 94.00000000000000000, 4.928994549158921965E-14, 25.40000000000015490 ) ) ;
#600 = ADVANCED_FACE ( 'N', ( #453 ), #1084, .T. ) ;
#601 = EDGE_LOOP ( 'NONE', ( #408, #850 ) ) ;
#602 = DIRECTION ( 'NONE',  ( -1.000000000000000000, 0.000000000000000000, 0.000000000000000000 ) ) ;
#603 = ORIENTED_EDGE ( 'NONE', *, *, #406, .T. ) ;
#604 = VERTEX_POINT ( 'NONE', #989 ) ;
#605 = VECTOR ( 'NONE', #385, 1000.000000000000000 ) ;
#606 = DIRECTION ( 'NONE',  ( 0.000000000000000000, 0.000000000000000000, 1.000000000000000000 ) ) ;
#607 = DIRECTION ( 'NONE',  ( -1.000000000000000000, 0.000000000000000000, 0.000000000000000000 ) ) ;
#608 = AXIS2_PLACEMENT_3D ( 'NONE', #233, #833, #1098 ) ;
#609 = DIRECTION ( 'NONE',  ( 0.000000000000000000, 0.000000000000000000, -1.000000000000000000 ) ) ;
#610 = ORIENTED_EDGE ( 'NONE', *, *, #501, .F. ) ;
#611 = DIRECTION ( 'NONE',  ( 0.000000000000000000, 0.000000000000000000, -1.000000000000000000 ) ) ;
#612 = ORIENTED_EDGE ( 'NONE', *, *, #339, .T. ) ;
#613 = EDGE_CURVE ( 'NONE', #727, #536, #281, .T. ) ;
#614 = EDGE_LOOP ( 'NONE', ( #389, #788, #915, #837 ) ) ;
#615 = FACE_OUTER_BOUND ( 'NONE', #490, .T. ) ;
#616 = ORIENTED_EDGE ( 'NONE', *, *, #949, .T. ) ;
#617 = DIRECTION ( 'NONE',  ( -1.000000000000000000, 0.000000000000000000, 0.000000000000000000 ) ) ;
#618 = ORIENTED_EDGE ( 'NONE', *, *, #514, .F. ) ;
#619 = ADVANCED_FACE ( 'NONE', ( #734 ), #269, .F. ) ;
#620 = CARTESIAN_POINT ( 'NONE',  ( 99.50000000000000000, 5.551115123125779547E-14, 7.843419788940609499E-14 ) ) ;
#621 = ORIENTED_EDGE ( 'NONE', *, *, #931, .F. ) ;
#622 = DIRECTION ( 'NONE',  ( 1.000000000000000000, -0.000000000000000000, -0.000000000000000000 ) ) ;
#623 = CIRCLE ( 'NONE', #218, 13.00000000000000178 ) ;
#624 = CYLINDRICAL_SURFACE ( 'NONE', #906, 12.50000000000000000 ) ;
#625 = PERSON_AND_ORGANIZATION ( #223, #56 ) ;
#626 = CYLINDRICAL_SURFACE ( 'NONE', #569, 25.39999999999999858 ) ;
#627 = EDGE_CURVE ( 'NONE', #217, #321, #642, .T. ) ;
#628 = CARTESIAN_POINT ( 'NONE',  ( 94.39999999999999147, 5.551115123125779547E-14, 7.843419788940609499E-14 ) ) ;
#629 = DIRECTION ( 'NONE',  ( 0.000000000000000000, 0.000000000000000000, 1.000000000000000000 ) ) ;
#630 = ORIENTED_EDGE ( 'NONE', *, *, #154, .T. ) ;
#631 = DIRECTION ( 'NONE',  ( -1.000000000000000000, 0.000000000000000000, 0.000000000000000000 ) ) ;
#632 = EDGE_CURVE ( 'NONE', #920, #592, #381, .T. ) ;
#633 = DIRECTION ( 'NONE',  ( 0.000000000000000000, 0.000000000000000000, 1.000000000000000000 ) ) ;
#634 = FACE_OUTER_BOUND ( 'NONE', #159, .T. ) ;
#635 = ORIENTED_EDGE ( 'NONE', *, *, #301, .F. ) ;
#636 = DIRECTION ( 'NONE',  ( 1.000000000000000000, 0.000000000000000000, 0.000000000000000000 ) ) ;
#637 = CARTESIAN_POINT ( 'NONE',  ( 94.39999999999999147, 3.935808355840769384E-15, 25.00000000000007816 ) ) ;
#638 = DIRECTION ( 'NONE',  ( -1.000000000000000000, 0.000000000000000000, 0.000000000000000000 ) ) ;
#639 = CIRCLE ( 'NONE', #416, 2.458500000000000352 ) ;
#640 = ORIENTED_EDGE ( 'NONE', *, *, #135, .F. ) ;
#641 = DATE_AND_TIME ( #382, #702 ) ;
#642 = LINE ( 'NONE', #997, #1066 ) ;
#643 = AXIS2_PLACEMENT_3D ( 'NONE', #780, #956, #532 ) ;
#644 = CARTESIAN_POINT ( 'NONE',  ( 100.0000000000000000, 5.551115123125779547E-14, 23.00000000000000000 ) ) ;
#645 = AXIS2_PLACEMENT_3D ( 'NONE', #299, #1003, #46 ) ;
#646 = ORIENTED_EDGE ( 'NONE', *, *, #708, .F. ) ;
#647 = ADVANCED_FACE ( 'NONE', ( #983 ), #561, .F. ) ;
#648 = DATE_AND_TIME ( #297, #204 ) ;
#649 = DIRECTION ( 'NONE',  ( 0.000000000000000000, 0.000000000000000000, -1.000000000000000000 ) ) ;
#650 = FACE_OUTER_BOUND ( 'NONE', #279, .T. ) ;
#651 = VERTEX_POINT ( 'NONE', #891 ) ;
#652 = DIRECTION ( 'NONE',  ( 1.000000000000000000, 0.000000000000000000, 0.000000000000000000 ) ) ;
#653 = DIRECTION ( 'NONE',  ( 1.000000000000000000, -0.000000000000000000, -0.000000000000000000 ) ) ;
#654 = EDGE_LOOP ( 'NONE', ( #661, #243 ) ) ;
#655 = CARTESIAN_POINT ( 'NONE',  ( 94.00000000000000000, 14.14213562373099897, -14.14213562373087996 ) ) ;
#656 = VERTEX_POINT ( 'NONE', #101 ) ;
#657 = AXIS2_PLACEMENT_3D ( 'NONE', #686, #502, #609 ) ;
#658 =( BOUNDED_SURFACE ( )  B_SPLINE_SURFACE ( 3, 3, ( 
 ( #637, #205, #466, #544 ),
 ( #119, #725, #446, #801 ),
 ( #12, #112, #806, #555 ),
 ( #106, #354, #819, #1076 ) ),
 .UNSPECIFIED., .F., .F., .F. ) 
 B_SPLINE_SURFACE_WITH_KNOTS ( ( 4, 4 ),
 ( 4, 4 ),
 ( 0.000000000000000000, 1.000000000000000000 ),
 ( 0.000000000000000000, 1.000000000000000000 ),
 .UNSPECIFIED. ) 
 GEOMETRIC_REPRESENTATION_ITEM ( )  RATIONAL_B_SPLINE_SURFACE ( (
 ( 1.000000000000000000, 0.3333333333333318715, 0.3333333333333318715, 1.000000000000000000),
 ( 0.8047378541243181971, 0.2682459513747715296, 0.2682459513747715296, 0.8047378541243181971),
 ( 0.8047378541243181971, 0.2682459513747715296, 0.2682459513747715296, 0.8047378541243181971),
 ( 1.000000000000000000, 0.3333333333333318715, 0.3333333333333318715, 1.000000000000000000) ) ) 
 REPRESENTATION_ITEM ( '' )  SURFACE ( )  );
#659 = DIRECTION ( 'NONE',  ( 0.000000000000000000, 0.000000000000000000, 1.000000000000000000 ) ) ;
#660 = EDGE_CURVE ( 'NONE', #1008, #289, #531, .T. ) ;
#661 = ORIENTED_EDGE ( 'NONE', *, *, #372, .T. ) ;
#662 = CARTESIAN_POINT ( 'NONE',  ( 100.0000000000000000, 14.14213562373099897, -16.60063562373088075 ) ) ;
#663 = AXIS2_PLACEMENT_3D ( 'NONE', #107, #23, #808 ) ;
#664 = ORIENTED_EDGE ( 'NONE', *, *, #4, .F. ) ;
#665 = AXIS2_PLACEMENT_3D ( 'NONE', #431, #707, #1127 ) ;
#666 = DIRECTION ( 'NONE',  ( 0.000000000000000000, -1.000000000000000000, 0.000000000000000000 ) ) ;
#667 = EDGE_LOOP ( 'NONE', ( #910, #1025 ) ) ;
#668 = CC_DESIGN_PERSON_AND_ORGANIZATION_ASSIGNMENT ( #413, #244, ( #1090 ) ) ;
#669 = CARTESIAN_POINT ( 'NONE',  ( 100.0000000000000000, -14.14213562373090127, -16.60063562373088075 ) ) ;
#670 = ORIENTED_EDGE ( 'NONE', *, *, #526, .F. ) ;
#671 = PLANE ( 'NONE',  #677 ) ;
#672 = EDGE_LOOP ( 'NONE', ( #415, #1137, #739, #543 ) ) ;
#673 = CYLINDRICAL_SURFACE ( 'NONE', #481, 2.458500000000000796 ) ;
#674 = ORIENTED_EDGE ( 'NONE', *, *, #1006, .F. ) ;
#675 = CARTESIAN_POINT ( 'NONE',  ( 94.00000000000000000, 5.551115123125779547E-14, 7.843419788940609499E-14 ) ) ;
#676 = ADVANCED_FACE ( 'NONE', ( #1069 ), #671, .T. ) ;
#677 = AXIS2_PLACEMENT_3D ( 'NONE', #235, #1002, #848 ) ;
#678 = AXIS2_PLACEMENT_3D ( 'NONE', #1100, #36, #219 ) ;
#679 = CARTESIAN_POINT ( 'NONE',  ( 100.0000000000000000, 5.551115123125779547E-14, 7.806255641895631925E-14 ) ) ;
#680 = AXIS2_PLACEMENT_3D ( 'NONE', #763, #152, #419 ) ;
#681 = DIRECTION ( 'NONE',  ( 0.000000000000000000, 0.000000000000000000, -1.000000000000000000 ) ) ;
#682 = ORIENTED_EDGE ( 'NONE', *, *, #364, .F. ) ;
#683 = CIRCLE ( 'NONE', #192, 2.999999999999999112 ) ;
#684 = CIRCLE ( 'NONE', #131, 2.458500000000000796 ) ;
#685 = EDGE_CURVE ( 'NONE', #440, #938, #827, .T. ) ;
#686 = CARTESIAN_POINT ( 'NONE',  ( 100.0000000000000000, 5.551115123125779547E-14, 25.00000000000000000 ) ) ;
#687 = ORIENTED_EDGE ( 'NONE', *, *, #251, .T. ) ;
#688 = CARTESIAN_POINT ( 'NONE',  ( 100.0000000000000000, -14.14213562373090127, 11.68363562373101949 ) ) ;
#689 = DIRECTION ( 'NONE',  ( 1.000000000000000000, -0.000000000000000000, -0.000000000000000000 ) ) ;
#690 = DIRECTION ( 'NONE',  ( 0.000000000000000000, 0.000000000000000000, 1.000000000000000000 ) ) ;
#691 = ORIENTED_EDGE ( 'NONE', *, *, #154, .F. ) ;
#692 = ORIENTED_EDGE ( 'NONE', *, *, #372, .F. ) ;
#693 = CARTESIAN_POINT ( 'NONE',  ( 100.0000000000000000, -14.14213562373090127, 14.14213562373102029 ) ) ;
#694 = ORIENTED_EDGE ( 'NONE', *, *, #1026, .T. ) ;
#695 = DATE_AND_TIME ( #952, #475 ) ;
#696 = CARTESIAN_POINT ( 'NONE',  ( 94.00000000000000000, 5.704195973019197851E-14, -12.49999999999992184 ) ) ;
#697 = ORIENTED_EDGE ( 'NONE', *, *, #1108, .T. ) ;
#698 = CC_DESIGN_PERSON_AND_ORGANIZATION_ASSIGNMENT ( #560, #741, ( #260 ) ) ;
#699 = CIRCLE ( 'NONE', #144, 2.458500000000000796 ) ;
#700 = EDGE_CURVE ( 'NONE', #843, #604, #824, .T. ) ;
#701 = FACE_OUTER_BOUND ( 'NONE', #468, .T. ) ;
#702 = LOCAL_TIME ( 22, 55, 30.00000000000000000, #290 ) ;
#703 = DIRECTION ( 'NONE',  ( -1.000000000000000000, 0.000000000000000000, 0.000000000000000000 ) ) ;
#704 = VECTOR ( 'NONE', #975, 1000.000000000000000 ) ;
#705 = CARTESIAN_POINT ( 'NONE',  ( 94.39999999999999147, 5.857276822912618048E-14, -24.99999999999992184 ) ) ;
#706 = ORIENTED_EDGE ( 'NONE', *, *, #992, .T. ) ;
#707 = DIRECTION ( 'NONE',  ( -1.000000000000000000, 0.000000000000000000, 0.000000000000000000 ) ) ;
#708 = EDGE_CURVE ( 'NONE', #651, #656, #990, .T. ) ;
#709 = FACE_OUTER_BOUND ( 'NONE', #1056, .T. ) ;
#710 = CARTESIAN_POINT ( 'NONE',  ( 94.00000000000000000, 5.551115123125779547E-14, 23.00000000000000000 ) ) ;
#711 = ORIENTED_EDGE ( 'NONE', *, *, #586, .T. ) ;
#712 = LINE ( 'NONE', #460, #988 ) ;
#713 = VERTEX_POINT ( 'NONE', #1022 ) ;
#714 = ADVANCED_FACE ( 'NONE', ( #314 ), #1097, .F. ) ;
#715 = CARTESIAN_POINT ( 'NONE',  ( 100.0000000000000000, 24.50000000000005684, 8.109355724684602048E-14 ) ) ;
#716 = AXIS2_PLACEMENT_3D ( 'NONE', #191, #979, #540 ) ;
#717 = DIRECTION ( 'NONE',  ( 0.000000000000000000, 0.000000000000000000, 1.000000000000000000 ) ) ;
#718 = AXIS2_PLACEMENT_3D ( 'NONE', #48, #1007, #649 ) ;
#719 = CARTESIAN_POINT ( 'NONE',  ( 100.0000000000000000, 14.14213562373099897, 14.14213562373102029 ) ) ;
#720 = ORIENTED_EDGE ( 'NONE', *, *, #1026, .F. ) ;
#721 = EDGE_CURVE ( 'NONE', #256, #651, #123, .T. ) ;
#722 = FACE_OUTER_BOUND ( 'NONE', #672, .T. ) ;
#723 = VECTOR ( 'NONE', #607, 1000.000000000000000 ) ;
#724 = AXIS2_PLACEMENT_3D ( 'NONE', #1139, #617, #606 ) ;
#725 = CARTESIAN_POINT ( 'NONE',  ( 94.16568542494920280, 50.00000000000022027, 25.00000000000018474 ) ) ;
#726 = CARTESIAN_POINT ( 'NONE',  ( 100.0000000000000000, -14.14213562373090127, -14.14213562373087996 ) ) ;
#727 = VERTEX_POINT ( 'NONE', #1012 ) ;
#728 = CARTESIAN_POINT ( 'NONE',  ( 100.0000000000000000, 14.14213562373099897, -16.60063562373088075 ) ) ;
#729 = CARTESIAN_POINT ( 'NONE',  ( 100.0000000000000000, 20.00000000000000000, 7.669947441342928790E-14 ) ) ;
#730 = DIRECTION ( 'NONE',  ( 1.000000000000000000, 0.000000000000000000, 0.000000000000000000 ) ) ;
#731 = ORIENTED_EDGE ( 'NONE', *, *, #660, .T. ) ;
#732 = CARTESIAN_POINT ( 'NONE',  ( 94.00000000000000000, -6.221205739668553730E-15, -25.39999999999999858 ) ) ;
#733 = VERTEX_POINT ( 'NONE', #470 ) ;
#734 = FACE_OUTER_BOUND ( 'NONE', #568, .T. ) ;
#735 = EDGE_CURVE ( 'NONE', #986, #458, #823, .T. ) ;
#736 = DIRECTION ( 'NONE',  ( 0.000000000000000000, 0.000000000000000000, 1.000000000000000000 ) ) ;
#737 = VECTOR ( 'NONE', #32, 1000.000000000000000 ) ;
#738 = CIRCLE ( 'NONE', #753, 2.458500000000000352 ) ;
#739 = ORIENTED_EDGE ( 'NONE', *, *, #441, .T. ) ;
#740 = AXIS2_PLACEMENT_3D ( 'NONE', #745, #302, #322 ) ;
#741 = PERSON_AND_ORGANIZATION_ROLE ( 'creator' ) ;
#742 = CARTESIAN_POINT ( 'NONE',  ( 100.0000000000000000, 6.591949208711869483E-14, -20.00000000000000000 ) ) ;
#743 = DIRECTION ( 'NONE',  ( 1.000000000000000000, 0.000000000000000000, 0.000000000000000000 ) ) ;
#744 = VERTEX_POINT ( 'NONE', #303 ) ;
#745 = CARTESIAN_POINT ( 'NONE',  ( 94.00000000000000000, -14.14213562373090127, 14.14213562373102029 ) ) ;
#746 = DIRECTION ( 'NONE',  ( -1.000000000000000000, 0.000000000000000000, 0.000000000000000000 ) ) ;
#747 = CARTESIAN_POINT ( 'NONE',  ( 100.0000000000000000, 14.14213562373099897, -14.14213562373087996 ) ) ;
#748 = ORIENTED_EDGE ( 'NONE', *, *, #735, .T. ) ;
#749 = ADVANCED_FACE ( 'NONE', ( #132 ), #398, .T. ) ;
#750 = DIRECTION ( 'NONE',  ( -1.000000000000000000, 0.000000000000000000, 0.000000000000000000 ) ) ;
#751 = DIRECTION ( 'NONE',  ( 0.000000000000000000, 0.000000000000000000, -1.000000000000000000 ) ) ;
#752 = ORIENTED_EDGE ( 'NONE', *, *, #787, .F. ) ;
#753 = AXIS2_PLACEMENT_3D ( 'NONE', #376, #795, #280 ) ;
#754 = ADVANCED_FACE ( 'NONE', ( #566 ), #583, .T. ) ;
#755 = CARTESIAN_POINT ( 'NONE',  ( 93.00000000000000000, 5.551115123125779547E-14, 7.843419788940609499E-14 ) ) ;
#756 = CARTESIAN_POINT ( 'NONE',  ( 94.00000000000000000, 5.551115123125779547E-14, 7.843419788940609499E-14 ) ) ;
#757 = CIRCLE ( 'NONE', #957, 25.00000000000000000 ) ;
#758 = ORIENTED_EDGE ( 'NONE', *, *, #897, .T. ) ;
#759 = AXIS2_PLACEMENT_3D ( 'NONE', #955, #872, #168 ) ;
#760 = CARTESIAN_POINT ( 'NONE',  ( 100.0000000000000000, 5.587854527100200722E-14, 17.00000000000000000 ) ) ;
#761 = CARTESIAN_POINT ( 'NONE',  ( 94.39999999999999147, 5.862175410109206444E-14, -25.39999999999992397 ) ) ;
#762 = ORIENTED_EDGE ( 'NONE', *, *, #122, .F. ) ;
#763 = CARTESIAN_POINT ( 'NONE',  ( 94.00000000000000000, 5.551115123125779547E-14, 7.843419788940609499E-14 ) ) ;
#764 = CARTESIAN_POINT ( 'NONE',  ( 94.39999999999999147, 5.551115123125779547E-14, 7.843419788940609499E-14 ) ) ;
#765 = ORIENTED_EDGE ( 'NONE', *, *, #294, .T. ) ;
#766 = CC_DESIGN_DATE_AND_TIME_ASSIGNMENT ( #695, #793, ( #497 ) ) ;
#767 = DIRECTION ( 'NONE',  ( 0.000000000000000000, 0.000000000000000000, 1.000000000000000000 ) ) ;
#768 = EDGE_CURVE ( 'NONE', #986, #125, #438, .T. ) ;
#769 = VERTEX_POINT ( 'NONE', #917 ) ;
#770 = CARTESIAN_POINT ( 'NONE',  ( 100.0000000000000000, 6.591949208711869483E-14, -20.00000000000000000 ) ) ;
#771 = ORIENTED_EDGE ( 'NONE', *, *, #1006, .T. ) ;
#772 = CARTESIAN_POINT ( 'NONE',  ( 94.00000000000000000, -20.00000000000000000, 7.149530398549889186E-14 ) ) ;
#773 = VERTEX_POINT ( 'NONE', #45 ) ;
#774 = APPROVAL_ROLE ( '' ) ;
#775 = AXIS2_PLACEMENT_3D ( 'NONE', #961, #883, #5 ) ;
#776 = ADVANCED_FACE ( 'NONE', ( #59 ), #137, .F. ) ;
#777 = CARTESIAN_POINT ( 'NONE',  ( 93.99999999999994316, -50.33137084989849086, -25.16568542494920280 ) ) ;
#778 = ORIENTED_EDGE ( 'NONE', *, *, #339, .F. ) ;
#779 = LINE ( 'NONE', #519, #209 ) ;
#780 = CARTESIAN_POINT ( 'NONE',  ( 99.50000000000000000, 5.551115123125779547E-14, 7.806255641895631925E-14 ) ) ;
#781 = EDGE_CURVE ( 'NONE', #604, #843, #455, .T. ) ;
#782 = CARTESIAN_POINT ( 'NONE',  ( 84.99999999999998579, 0.000000000000000000, 0.000000000000000000 ) ) ;
#783 = VERTEX_POINT ( 'NONE', #760 ) ;
#784 = CARTESIAN_POINT ( 'NONE',  ( 99.50000000000000000, 25.00000000000005684, 8.112417341682471057E-14 ) ) ;
#785 = DIRECTION ( 'NONE',  ( 0.000000000000000000, 0.000000000000000000, 1.000000000000000000 ) ) ;
#786 = CARTESIAN_POINT ( 'NONE',  ( 93.99999999999994316, 5.859305884165912377E-14, -25.16568542494919569 ) ) ;
#787 = EDGE_CURVE ( 'NONE', #41, #347, #699, .T. ) ;
#788 = ORIENTED_EDGE ( 'NONE', *, *, #287, .F. ) ;
#789 = AXIS2_PLACEMENT_3D ( 'NONE', #85, #1042, #249 ) ;
#790 = LINE ( 'NONE', #878, #78 ) ;
#791 = LOCAL_TIME ( 22, 55, 30.00000000000000000, #332 ) ;
#792 = DIRECTION ( 'NONE',  ( -1.000000000000000000, 0.000000000000000000, 0.000000000000000000 ) ) ;
#793 = DATE_TIME_ROLE ( 'classification_date' ) ;
#794 = AXIS2_PLACEMENT_3D ( 'NONE', #443, #798, #860 ) ;
#795 = DIRECTION ( 'NONE',  ( -1.000000000000000000, 0.000000000000000000, 0.000000000000000000 ) ) ;
#796 = ORIENTED_EDGE ( 'NONE', *, *, #1138, .T. ) ;
#797 = DIRECTION ( 'NONE',  ( 1.000000000000000000, -0.000000000000000000, -0.000000000000000000 ) ) ;
#798 = DIRECTION ( 'NONE',  ( -1.000000000000000000, 0.000000000000000000, 0.000000000000000000 ) ) ;
#799 = SHAPE_DEFINITION_REPRESENTATION ( #148, #482 ) ;
#800 = PLANE ( 'NONE',  #308 ) ;
#801 = CARTESIAN_POINT ( 'NONE',  ( 94.16568542494918859, -8.741913579724640446E-16, -24.99999999999992184 ) ) ;
#802 = CARTESIAN_POINT ( 'NONE',  ( 94.00000000000000000, 5.551115123125779547E-14, 7.843419788940609499E-14 ) ) ;
#803 = ADVANCED_FACE ( 'NONE', ( #309 ), #228, .F. ) ;
#804 = ORIENTED_EDGE ( 'NONE', *, *, #1095, .T. ) ;
#805 = DIRECTION ( 'NONE',  ( -1.000000000000000000, 0.000000000000000000, 0.000000000000000000 ) ) ;
#806 = CARTESIAN_POINT ( 'NONE',  ( 93.99999999999994316, 50.33137084989878929, -25.16568542494932359 ) ) ;
#807 = VECTOR ( 'NONE', #1067, 1000.000000000000000 ) ;
#808 = DIRECTION ( 'NONE',  ( 0.000000000000000000, 0.000000000000000000, 1.000000000000000000 ) ) ;
#809 = CC_DESIGN_APPROVAL ( #58, ( #260 ) ) ;
#810 = ORIENTED_EDGE ( 'NONE', *, *, #488, .F. ) ;
#811 = EDGE_CURVE ( 'NONE', #375, #829, #1120, .T. ) ;
#812 = DIRECTION ( 'NONE',  ( -1.000000000000000000, 0.000000000000000000, 0.000000000000000000 ) ) ;
#813 = AXIS2_PLACEMENT_3D ( 'NONE', #866, #425, #767 ) ;
#814 = DIRECTION ( 'NONE',  ( -1.000000000000000000, 0.000000000000000000, 0.000000000000000000 ) ) ;
#815 = PLANE ( 'NONE',  #461 ) ;
#816 = ORIENTED_EDGE ( 'NONE', *, *, #685, .T. ) ;
#817 = CARTESIAN_POINT ( 'NONE',  ( 99.50000000000000000, 5.551115123125779547E-14, 7.843419788940609499E-14 ) ) ;
#818 = ADVANCED_FACE ( 'NONE', ( #142, #496, #409, #328, #255, #943, #172, #146, #954, #153 ), #959, .T. ) ;
#819 = CARTESIAN_POINT ( 'NONE',  ( 94.00000000000001421, 50.80000000000040217, -25.40000000000011582 ) ) ;
#820 = FACE_OUTER_BOUND ( 'NONE', #923, .T. ) ;
#821 = EDGE_LOOP ( 'NONE', ( #178, #231 ) ) ;
#822 = EDGE_CURVE ( 'NONE', #656, #651, #623, .T. ) ;
#823 = LINE ( 'NONE', #1092, #55 ) ;
#824 = CIRCLE ( 'NONE', #324, 2.458500000000000796 ) ;
#825 = ADVANCED_FACE ( 'NONE', ( #853 ), #1055, .T. ) ;
#826 = CARTESIAN_POINT ( 'NONE',  ( 99.50000000000000000, 5.857276822912618048E-14, -24.99999999999992184 ) ) ;
#827 = CIRCLE ( 'NONE', #184, 2.999999999999999112 ) ;
#828 = AXIS2_PLACEMENT_3D ( 'NONE', #782, #1136, #338 ) ;
#829 = VERTEX_POINT ( 'NONE', #433 ) ;
#830 = AXIS2_PLACEMENT_3D ( 'NONE', #861, #505, #921 ) ;
#831 = LINE ( 'NONE', #483, #974 ) ;
#832 = DIRECTION ( 'NONE',  ( -1.000000000000000000, -2.775557561562891351E-16, -3.851859888774471706E-32 ) ) ;
#833 = DIRECTION ( 'NONE',  ( 1.000000000000000000, -0.000000000000000000, -0.000000000000000000 ) ) ;
#834 = EDGE_CURVE ( 'NONE', #727, #217, #552, .T. ) ;
#835 = VERTEX_POINT ( 'NONE', #165 ) ;
#836 = DIRECTION ( 'NONE',  ( 0.000000000000000000, 0.000000000000000000, 1.000000000000000000 ) ) ;
#837 = ORIENTED_EDGE ( 'NONE', *, *, #781, .F. ) ;
#838 = LINE ( 'NONE', #139, #149 ) ;
#839 = ORIENTED_EDGE ( 'NONE', *, *, #494, .F. ) ;
#840 = EDGE_CURVE ( 'NONE', #536, #321, #935, .T. ) ;
#841 = APPLICATION_CONTEXT ( 'configuration controlled 3d designs of mechanical parts and assemblies' ) ;
#842 = DIRECTION ( 'NONE',  ( -1.000000000000000000, 0.000000000000000000, 0.000000000000000000 ) ) ;
#843 = VERTEX_POINT ( 'NONE', #506 ) ;
#844 = DIRECTION ( 'NONE',  ( -1.000000000000000000, 0.000000000000000000, 0.000000000000000000 ) ) ;
#845 = ORIENTED_EDGE ( 'NONE', *, *, #273, .T. ) ;
#846 = VECTOR ( 'NONE', #900, 1000.000000000000000 ) ;
#847 = CIRCLE ( 'NONE', #828, 25.39999999999999858 ) ;
#848 = DIRECTION ( 'NONE',  ( 0.000000000000000000, 0.000000000000000000, -1.000000000000000000 ) ) ;
#849 = CARTESIAN_POINT ( 'NONE',  ( 99.50000000000000000, 5.551115123125779547E-14, 12.50000000000007816 ) ) ;
#850 = ORIENTED_EDGE ( 'NONE', *, *, #781, .T. ) ;
#851 = AXIS2_PLACEMENT_3D ( 'NONE', #1015, #407, #579 ) ;
#852 = DIRECTION ( 'NONE',  ( 1.000000000000000000, 0.000000000000000000, 0.000000000000000000 ) ) ;
#853 = FACE_OUTER_BOUND ( 'NONE', #9, .T. ) ;
#854 = EDGE_CURVE ( 'NONE', #592, #920, #163, .T. ) ;
#855 = CARTESIAN_POINT ( 'NONE',  ( 100.0000000000000000, 20.00000000000000000, 2.458500000000078956 ) ) ;
#856 = VERTEX_POINT ( 'NONE', #68 ) ;
#857 =( NAMED_UNIT ( * ) PLANE_ANGLE_UNIT ( ) SI_UNIT ( $, .RADIAN. ) );
#858 = DIRECTION ( 'NONE',  ( 0.000000000000000000, 0.000000000000000000, -1.000000000000000000 ) ) ;
#859 = CARTESIAN_POINT ( 'NONE',  ( 94.00000000000000000, -14.14213562373090127, -11.68363562373087916 ) ) ;
#860 = DIRECTION ( 'NONE',  ( 0.000000000000000000, 0.000000000000000000, 1.000000000000000000 ) ) ;
#861 = CARTESIAN_POINT ( 'NONE',  ( 94.00000000000000000, 5.551115123125779547E-14, 7.843419788940609499E-14 ) ) ;
#862 = CIRCLE ( 'NONE', #111, 2.999999999999999112 ) ;
#863 = CIRCLE ( 'NONE', #680, 12.50000000000000000 ) ;
#864 = CARTESIAN_POINT ( 'NONE',  ( 100.0000000000000000, 6.591949208711869483E-14, -20.00000000000000000 ) ) ;
#865 = EDGE_LOOP ( 'NONE', ( #796, #697 ) ) ;
#866 = CARTESIAN_POINT ( 'NONE',  ( 100.0000000000000000, 5.551115123125779547E-14, 20.00000000000000000 ) ) ;
#867 = CARTESIAN_POINT ( 'NONE',  ( 94.00000000000000000, -14.14213562373090127, -14.14213562373087996 ) ) ;
#868 = ADVANCED_FACE ( 'NONE', ( #414 ), #582, .F. ) ;
#869 = CIRCLE ( 'NONE', #116, 2.458500000000000352 ) ;
#870 = CYLINDRICAL_SURFACE ( 'NONE', #383, 2.458499999999999019 ) ;
#871 = EDGE_LOOP ( 'NONE', ( #966, #34, #612, #86 ) ) ;
#872 = DIRECTION ( 'NONE',  ( -1.000000000000000000, 0.000000000000000000, 0.000000000000000000 ) ) ;
#873 = ORIENTED_EDGE ( 'NONE', *, *, #26, .F. ) ;
#874 = ADVANCED_FACE ( 'NONE', ( #510 ), #870, .F. ) ;
#875 = CARTESIAN_POINT ( 'NONE',  ( 94.39999999999999147, 4.938791723552102544E-14, 25.00000000000007816 ) ) ;
#876 = ORIENTED_EDGE ( 'NONE', *, *, #457, .F. ) ;
#877 = UNCERTAINTY_MEASURE_WITH_UNIT (LENGTH_MEASURE( 1.000000000000000082E-05 ), #942, 'distance_accuracy_value', 'NONE');
#878 = CARTESIAN_POINT ( 'NONE',  ( -95.50000000000000000, 0.000000000000000000, -25.39999999999999858 ) ) ;
#879 = CARTESIAN_POINT ( 'NONE',  ( 100.0000000000000000, -20.00000000000000000, 7.149530398549889186E-14 ) ) ;
#880 = DIRECTION ( 'NONE',  ( 0.000000000000000000, 0.000000000000000000, 1.000000000000000000 ) ) ;
#881 = ORIENTED_EDGE ( 'NONE', *, *, #364, .T. ) ;
#882 = CIRCLE ( 'NONE', #972, 25.00000000000000000 ) ;
#883 = DIRECTION ( 'NONE',  ( -1.000000000000000000, 0.000000000000000000, 0.000000000000000000 ) ) ;
#884 = CARTESIAN_POINT ( 'NONE',  ( 100.0000000000000000, -14.14213562373090127, -11.68363562373087916 ) ) ;
#885 = CALENDAR_DATE ( 2025, 12, 11 ) ;
#886 = EDGE_LOOP ( 'NONE', ( #1087, #485, #1133, #253 ) ) ;
#887 = CIRCLE ( 'NONE', #1034, 24.50000000000000000 ) ;
#888 = CARTESIAN_POINT ( 'NONE',  ( 94.00000000000000000, 20.00000000000000000, 2.458500000000078956 ) ) ;
#889 = ORIENTED_EDGE ( 'NONE', *, *, #632, .F. ) ;
#890 = EDGE_CURVE ( 'NONE', #221, #926, #533, .T. ) ;
#891 = CARTESIAN_POINT ( 'NONE',  ( 100.0000000000000000, 5.710319207014935870E-14, 13.00000000000007994 ) ) ;
#892 = PLANE ( 'NONE',  #574 ) ;
#893 = COORDINATED_UNIVERSAL_TIME_OFFSET ( 7, 0, .AHEAD. ) ;
#894 = LINE ( 'NONE', #978, #343 ) ;
#895 = CARTESIAN_POINT ( 'NONE',  ( 94.00000000000000000, 6.622057150268907742E-14, -22.45850000000000080 ) ) ;
#896 = CYLINDRICAL_SURFACE ( 'NONE', #663, 2.458500000000000796 ) ;
#897 = EDGE_CURVE ( 'NONE', #11, #595, #847, .T. ) ;
#898 = ORIENTED_EDGE ( 'NONE', *, *, #84, .T. ) ;
#899 = DIRECTION ( 'NONE',  ( 1.000000000000000000, -0.000000000000000000, -0.000000000000000000 ) ) ;
#900 = DIRECTION ( 'NONE',  ( -1.000000000000000000, 0.000000000000000000, 0.000000000000000000 ) ) ;
#901 = AXIS2_PLACEMENT_3D ( 'NONE', #1017, #932, #405 ) ;
#902 = DIRECTION ( 'NONE',  ( 0.000000000000000000, 0.000000000000000000, -1.000000000000000000 ) ) ;
#903 = VERTEX_POINT ( 'NONE', #696 ) ;
#904 = EDGE_CURVE ( 'NONE', #744, #769, #639, .T. ) ;
#905 = CARTESIAN_POINT ( 'NONE',  ( 100.0000000000000000, 5.551115123125779547E-14, 20.00000000000000000 ) ) ;
#906 = AXIS2_PLACEMENT_3D ( 'NONE', #33, #638, #629 ) ;
#907 = AXIS2_PLACEMENT_3D ( 'NONE', #693, #602, #1045 ) ;
#908 = DIRECTION ( 'NONE',  ( 0.000000000000000000, 0.000000000000000000, 1.000000000000000000 ) ) ;
#909 = DIRECTION ( 'NONE',  ( -1.000000000000000000, 0.000000000000000000, 0.000000000000000000 ) ) ;
#910 = ORIENTED_EDGE ( 'NONE', *, *, #968, .T. ) ;
#911 = EDGE_CURVE ( 'NONE', #835, #256, #254, .T. ) ;
#912 = DIRECTION ( 'NONE',  ( -1.000000000000000000, 0.000000000000000000, 0.000000000000000000 ) ) ;
#913 = LINE ( 'NONE', #292, #846 ) ;
#914 = CARTESIAN_POINT ( 'NONE',  ( 100.0000000000000000, 5.564992910933594635E-14, 7.806255641895631925E-14 ) ) ;
#915 = ORIENTED_EDGE ( 'NONE', *, *, #565, .T. ) ;
#916 = APPROVAL_ROLE ( '' ) ;
#917 = CARTESIAN_POINT ( 'NONE',  ( 94.00000000000000000, -20.00000000000000000, 2.458500000000071850 ) ) ;
#918 = PLANE ( 'NONE',  #278 ) ;
#919 = AXIS2_PLACEMENT_3D ( 'NONE', #770, #158, #80 ) ;
#920 = VERTEX_POINT ( 'NONE', #188 ) ;
#921 = DIRECTION ( 'NONE',  ( 0.000000000000000000, 0.000000000000000000, 1.000000000000000000 ) ) ;
#922 = CARTESIAN_POINT ( 'NONE',  ( 94.00000000000000000, 14.14213562373099897, 14.14213562373102029 ) ) ;
#923 = EDGE_LOOP ( 'NONE', ( #1013, #630 ) ) ;
#924 = ADVANCED_FACE ( 'NONE', ( #722 ), #626, .T. ) ;
#925 = FACE_OUTER_BOUND ( 'NONE', #1135, .T. ) ;
#926 = VERTEX_POINT ( 'NONE', #352 ) ;
#927 = CARTESIAN_POINT ( 'NONE',  ( 100.0000000000000000, 5.710319207014935870E-14, 13.00000000000007994 ) ) ;
#928 = ORIENTED_EDGE ( 'NONE', *, *, #735, .F. ) ;
#929 = DIRECTION ( 'NONE',  ( -0.7071067811865473507, -0.7071067811865477948, -2.723676247532890298E-32 ) ) ;
#930 = EDGE_LOOP ( 'NONE', ( #1021, #752, #771, #434 ) ) ;
#931 = EDGE_CURVE ( 'NONE', #3, #451, #72, .T. ) ;
#932 = DIRECTION ( 'NONE',  ( -1.000000000000000000, 0.000000000000000000, 0.000000000000000000 ) ) ;
#933 = DIRECTION ( 'NONE',  ( -1.000000000000000000, 0.000000000000000000, 0.000000000000000000 ) ) ;
#934 = EDGE_LOOP ( 'NONE', ( #353, #1061, #581, #268 ) ) ;
#935 = CIRCLE ( 'NONE', #1068, 2.458499999999999019 ) ;
#936 = EDGE_CURVE ( 'NONE', #595, #225, #894, .T. ) ;
#937 = CARTESIAN_POINT ( 'NONE',  ( 94.00000000000000000, 6.591949208711869483E-14, -20.00000000000000000 ) ) ;
#938 = VERTEX_POINT ( 'NONE', #710 ) ;
#939 = CARTESIAN_POINT ( 'NONE',  ( 100.0000000000000000, 20.00000000000000000, -2.458499999999925745 ) ) ;
#940 = CIRCLE ( 'NONE', #593, 2.458500000000000796 ) ;
#941 = ORIENTED_EDGE ( 'NONE', *, *, #936, .T. ) ;
#942 =( LENGTH_UNIT ( ) NAMED_UNIT ( * ) SI_UNIT ( .MILLI., .METRE. ) );
#943 = FACE_BOUND ( 'NONE', #654, .T. ) ;
#944 = DIRECTION ( 'NONE',  ( -1.000000000000000000, 0.000000000000000000, 0.000000000000000000 ) ) ;
#945 = ORIENTED_EDGE ( 'NONE', *, *, #108, .T. ) ;
#946 = DIRECTION ( 'NONE',  ( 0.000000000000000000, 0.000000000000000000, 1.000000000000000000 ) ) ;
#947 = DIRECTION ( 'NONE',  ( 1.000000000000000000, -0.000000000000000000, -0.000000000000000000 ) ) ;
#948 = ORIENTED_EDGE ( 'NONE', *, *, #1095, .F. ) ;
#949 = EDGE_CURVE ( 'NONE', #829, #856, #365, .T. ) ;
#950 = CYLINDRICAL_SURFACE ( 'NONE', #759, 2.458500000000000796 ) ;
#951 = DIRECTION ( 'NONE',  ( -1.000000000000000000, 0.000000000000000000, 0.000000000000000000 ) ) ;
#952 = CALENDAR_DATE ( 2025, 12, 11 ) ;
#953 = AXIS2_PLACEMENT_3D ( 'NONE', #395, #127, #476 ) ;
#954 = FACE_OUTER_BOUND ( 'NONE', #585, .T. ) ;
#955 = CARTESIAN_POINT ( 'NONE',  ( 100.0000000000000000, -14.14213562373090127, -14.14213562373087996 ) ) ;
#956 = DIRECTION ( 'NONE',  ( -1.000000000000000000, -2.775557561562891351E-16, -3.851859888774471706E-32 ) ) ;
#957 = AXIS2_PLACEMENT_3D ( 'NONE', #432, #792, #785 ) ;
#958 = CONICAL_SURFACE ( 'NONE', #576, 13.00000000000000178, 0.7853981633974482790 ) ;
#959 = PLANE ( 'NONE',  #657 ) ;
#960 = EDGE_LOOP ( 'NONE', ( #981, #898 ) ) ;
#961 = CARTESIAN_POINT ( 'NONE',  ( 99.50000000000000000, 5.551115123125779547E-14, 7.843419788940609499E-14 ) ) ;
#962 = FACE_OUTER_BOUND ( 'NONE', #871, .T. ) ;
#963 = CARTESIAN_POINT ( 'NONE',  ( 85.00000000000000000, 0.000000000000000000, 0.000000000000000000 ) ) ;
#964 = ORIENTED_EDGE ( 'NONE', *, *, #420, .T. ) ;
#965 = LINE ( 'NONE', #258, #1014 ) ;
#966 = ORIENTED_EDGE ( 'NONE', *, *, #161, .F. ) ;
#967 = EDGE_LOOP ( 'NONE', ( #1049, #340 ) ) ;
#968 = EDGE_CURVE ( 'NONE', #202, #783, #862, .T. ) ;
#969 = DIRECTION ( 'NONE',  ( 1.000000000000000000, 0.000000000000000000, 0.000000000000000000 ) ) ;
#970 = AXIS2_PLACEMENT_3D ( 'NONE', #53, #746, #571 ) ;
#971 = EDGE_LOOP ( 'NONE', ( #1105, #1046, #711, #312 ) ) ;
#972 = AXIS2_PLACEMENT_3D ( 'NONE', #817, #31, #1083 ) ;
#973 = CARTESIAN_POINT ( 'NONE',  ( 100.0000000000000000, 6.622057150268907742E-14, -22.45850000000000080 ) ) ;
#974 = VECTOR ( 'NONE', #912, 1000.000000000000000 ) ;
#975 = DIRECTION ( 'NONE',  ( -1.000000000000000000, 0.000000000000000000, 0.000000000000000000 ) ) ;
#976 = AXIS2_PLACEMENT_3D ( 'NONE', #719, #270, #206 ) ;
#977 = AXIS2_PLACEMENT_3D ( 'NONE', #392, #591, #134 ) ;
#978 = CARTESIAN_POINT ( 'NONE',  ( -95.50000000000000000, 3.110602869834276865E-15, 25.39999999999999858 ) ) ;
#979 = DIRECTION ( 'NONE',  ( -1.000000000000000000, 0.000000000000000000, 0.000000000000000000 ) ) ;
#980 = LINE ( 'NONE', #447, #704 ) ;
#981 = ORIENTED_EDGE ( 'NONE', *, *, #551, .T. ) ;
#982 = DIRECTION ( 'NONE',  ( 0.000000000000000000, 0.000000000000000000, -1.000000000000000000 ) ) ;
#983 = FACE_OUTER_BOUND ( 'NONE', #886, .T. ) ;
#984 = EDGE_CURVE ( 'NONE', #221, #604, #452, .T. ) ;
#985 = CARTESIAN_POINT ( 'NONE',  ( 100.0000000000000000, -24.49999999999994671, 7.806255641895631925E-14 ) ) ;
#986 = VERTEX_POINT ( 'NONE', #715 ) ;
#987 = DIRECTION ( 'NONE',  ( -1.000000000000000000, 0.000000000000000000, 0.000000000000000000 ) ) ;
#988 = VECTOR ( 'NONE', #814, 1000.000000000000000 ) ;
#989 = CARTESIAN_POINT ( 'NONE',  ( 94.00000000000000000, 14.14213562373099897, 11.68363562373101949 ) ) ;
#990 = CIRCLE ( 'NONE', #718, 13.00000000000000178 ) ;
#991 = CYLINDRICAL_SURFACE ( 'NONE', #976, 2.458500000000000796 ) ;
#992 = EDGE_CURVE ( 'NONE', #347, #1008, #92, .T. ) ;
#993 = ORIENTED_EDGE ( 'NONE', *, *, #904, .F. ) ;
#994 = APPROVAL_DATE_TIME ( #641, #58 ) ;
#995 = AXIS2_PLACEMENT_3D ( 'NONE', #162, #342, #277 ) ;
#996 = AXIS2_PLACEMENT_3D ( 'NONE', #524, #87, #681 ) ;
#997 = CARTESIAN_POINT ( 'NONE',  ( 100.0000000000000000, 6.591949208711869483E-14, -17.54150000000000276 ) ) ;
#998 = DIRECTION ( 'NONE',  ( 1.000000000000000000, 0.000000000000000000, 0.000000000000000000 ) ) ;
#999 = ORIENTED_EDGE ( 'NONE', *, *, #488, .T. ) ;
#1000 = ADVANCED_FACE ( 'NONE', ( #439 ), #1079, .F. ) ;
#1001 = DATE_TIME_ROLE ( 'creation_date' ) ;
#1002 = DIRECTION ( 'NONE',  ( 1.000000000000000000, 0.000000000000000000, 0.000000000000000000 ) ) ;
#1003 = DIRECTION ( 'NONE',  ( -1.000000000000000000, 0.000000000000000000, 0.000000000000000000 ) ) ;
#1004 = ORIENTED_EDGE ( 'NONE', *, *, #890, .T. ) ;
#1005 = CARTESIAN_POINT ( 'NONE',  ( 94.00000000000000000, 6.591949208711869483E-14, -20.00000000000000000 ) ) ;
#1006 = EDGE_CURVE ( 'NONE', #41, #289, #27, .T. ) ;
#1007 = DIRECTION ( 'NONE',  ( -1.000000000000000000, -0.000000000000000000, -0.000000000000000000 ) ) ;
#1008 = VERTEX_POINT ( 'NONE', #267 ) ;
#1009 = LINE ( 'NONE', #230, #1126 ) ;
#1010 = CC_DESIGN_SECURITY_CLASSIFICATION ( #497, ( #363 ) ) ;
#1011 = ORIENTED_EDGE ( 'NONE', *, *, #700, .F. ) ;
#1012 = CARTESIAN_POINT ( 'NONE',  ( 100.0000000000000000, 6.622057150268907742E-14, -22.45850000000000080 ) ) ;
#1013 = ORIENTED_EDGE ( 'NONE', *, *, #1113, .T. ) ;
#1014 = VECTOR ( 'NONE', #341, 1000.000000000000000 ) ;
#1015 = CARTESIAN_POINT ( 'NONE',  ( 100.0000000000000000, 5.551115123125779547E-14, 7.806255641895631925E-14 ) ) ;
#1016 = VERTEX_POINT ( 'NONE', #888 ) ;
#1017 = CARTESIAN_POINT ( 'NONE',  ( 100.0000000000000000, -14.14213562373090127, 14.14213562373102029 ) ) ;
#1018 = CC_DESIGN_PERSON_AND_ORGANIZATION_ASSIGNMENT ( #1064, #344, ( #497 ) ) ;
#1019 = LINE ( 'NONE', #855, #1054 ) ;
#1020 = EDGE_CURVE ( 'NONE', #451, #3, #738, .T. ) ;
#1021 = ORIENTED_EDGE ( 'NONE', *, *, #992, .F. ) ;
#1022 = CARTESIAN_POINT ( 'NONE',  ( 100.0000000000000000, -14.14213562373090127, -16.60063562373088075 ) ) ;
#1023 = ORIENTED_EDGE ( 'NONE', *, *, #190, .F. ) ;
#1024 = DIRECTION ( 'NONE',  ( 1.000000000000000000, 0.000000000000000000, 0.000000000000000000 ) ) ;
#1025 = ORIENTED_EDGE ( 'NONE', *, *, #135, .T. ) ;
#1026 = EDGE_CURVE ( 'NONE', #329, #528, #361, .T. ) ;
#1027 = AXIS2_PLACEMENT_3D ( 'NONE', #628, #622, #211 ) ;
#1028 = DIRECTION ( 'NONE',  ( 1.000000000000000000, -0.000000000000000000, -0.000000000000000000 ) ) ;
#1029 = AXIS2_PLACEMENT_3D ( 'NONE', #548, #987, #203 ) ;
#1030 = APPROVAL_PERSON_ORGANIZATION ( #1141, #355, #1130 ) ;
#1031 = CARTESIAN_POINT ( 'NONE',  ( 94.00000000000000000, 5.551115123125779547E-14, 7.843419788940609499E-14 ) ) ;
#1032 = CIRCLE ( 'NONE', #538, 12.50000000000000000 ) ;
#1033 = CARTESIAN_POINT ( 'NONE',  ( 94.00000000000000000, -14.14213562373090127, 11.68363562373101949 ) ) ;
#1034 = AXIS2_PLACEMENT_3D ( 'NONE', #914, #193, #1070 ) ;
#1035 = VERTEX_POINT ( 'NONE', #732 ) ;
#1036 = DIRECTION ( 'NONE',  ( 0.000000000000000000, 0.000000000000000000, 1.000000000000000000 ) ) ;
#1037 = ADVANCED_FACE ( 'NONE', ( #10 ), #800, .T. ) ;
#1038 = CARTESIAN_POINT ( 'NONE',  ( 94.00000000000000000, 5.862175410109207707E-14, -25.39999999999999858 ) ) ;
#1039 = EDGE_LOOP ( 'NONE', ( #509, #845, #1044, #300, #563 ) ) ;
#1040 = LINE ( 'NONE', #247, #404 ) ;
#1041 = DIRECTION ( 'NONE',  ( 0.000000000000000000, 0.000000000000000000, 1.000000000000000000 ) ) ;
#1042 = DIRECTION ( 'NONE',  ( -1.000000000000000000, 0.000000000000000000, 0.000000000000000000 ) ) ;
#1043 = ADVANCED_FACE ( 'NONE', ( #15 ), #199, .F. ) ;
#1044 = ORIENTED_EDGE ( 'NONE', *, *, #632, .T. ) ;
#1045 = DIRECTION ( 'NONE',  ( 0.000000000000000000, 0.000000000000000000, 1.000000000000000000 ) ) ;
#1046 = ORIENTED_EDGE ( 'NONE', *, *, #108, .F. ) ;
#1047 =( GEOMETRIC_REPRESENTATION_CONTEXT ( 3 ) GLOBAL_UNCERTAINTY_ASSIGNED_CONTEXT ( ( #877 ) ) GLOBAL_UNIT_ASSIGNED_CONTEXT ( ( #942, #857, #239 ) ) REPRESENTATION_CONTEXT ( 'NONE', 'WORKASPACE' ) );
#1048 = CARTESIAN_POINT ( 'NONE',  ( 94.00000000000000000, -20.00000000000000000, 7.149530398549889186E-14 ) ) ;
#1049 = ORIENTED_EDGE ( 'NONE', *, *, #897, .F. ) ;
#1050 = DIRECTION ( 'NONE',  ( 1.000000000000000000, 0.000000000000000000, 0.000000000000000000 ) ) ;
#1051 = CARTESIAN_POINT ( 'NONE',  ( 94.00000000000000000, 20.00000000000000000, 7.669947441342928790E-14 ) ) ;
#1052 = AXIS2_PLACEMENT_3D ( 'NONE', #597, #71, #418 ) ;
#1053 = ORIENTED_EDGE ( 'NONE', *, *, #441, .F. ) ;
#1054 = VECTOR ( 'NONE', #844, 1000.000000000000000 ) ;
#1055 = PLANE ( 'NONE',  #38 ) ;
#1056 = EDGE_LOOP ( 'NONE', ( #621, #180, #810, #136 ) ) ;
#1057 = DIRECTION ( 'NONE',  ( 1.000000000000000000, -0.000000000000000000, -0.000000000000000000 ) ) ;
#1058 = ORIENTED_EDGE ( 'NONE', *, *, #307, .T. ) ;
#1059 = EDGE_CURVE ( 'NONE', #458, #238, #882, .T. ) ;
#1060 = DIRECTION ( 'NONE',  ( -1.000000000000000000, 0.000000000000000000, 0.000000000000000000 ) ) ;
#1061 = ORIENTED_EDGE ( 'NONE', *, *, #854, .F. ) ;
#1062 = CARTESIAN_POINT ( 'NONE',  ( 94.00000000000000000, 5.551115123125779547E-14, 7.843419788940609499E-14 ) ) ;
#1063 = CARTESIAN_POINT ( 'NONE',  ( 100.0000000000000000, 14.14213562373099897, -11.68363562373087916 ) ) ;
#1064 = PERSON_AND_ORGANIZATION ( #223, #56 ) ;
#1065 = ORIENTED_EDGE ( 'NONE', *, *, #840, .F. ) ;
#1066 = VECTOR ( 'NONE', #373, 1000.000000000000000 ) ;
#1067 = DIRECTION ( 'NONE',  ( -1.000000000000000000, 0.000000000000000000, 0.000000000000000000 ) ) ;
#1068 = AXIS2_PLACEMENT_3D ( 'NONE', #937, #947, #346 ) ;
#1069 = FACE_OUTER_BOUND ( 'NONE', #380, .T. ) ;
#1070 = DIRECTION ( 'NONE',  ( 0.000000000000000000, -1.000000000000000000, 0.000000000000000000 ) ) ;
#1071 = ORIENTED_EDGE ( 'NONE', *, *, #854, .T. ) ;
#1072 = AXIS2_PLACEMENT_3D ( 'NONE', #472, #909, #113 ) ;
#1073 = AXIS2_PLACEMENT_3D ( 'NONE', #50, #224, #396 ) ;
#1074 = DIRECTION ( 'NONE',  ( -1.000000000000000000, 0.000000000000000000, 0.000000000000000000 ) ) ;
#1075 = ADVANCED_FACE ( 'NONE', ( #615 ), #179, .T. ) ;
#1076 = CARTESIAN_POINT ( 'NONE',  ( 94.00000000000000000, -1.776356839400326195E-15, -25.40000000000000213 ) ) ;
#1077 = DIRECTION ( 'NONE',  ( -1.000000000000000000, 0.000000000000000000, 0.000000000000000000 ) ) ;
#1078 = EDGE_LOOP ( 'NONE', ( #94, #283, #499, #1111 ) ) ;
#1079 = PLANE ( 'NONE',  #1 ) ;
#1080 = CARTESIAN_POINT ( 'NONE',  ( 94.39999999999999147, 5.551115123125779547E-14, 25.00000000000007816 ) ) ;
#1081 = DIRECTION ( 'NONE',  ( 1.000000000000000000, -0.000000000000000000, -0.000000000000000000 ) ) ;
#1082 = ORIENTED_EDGE ( 'NONE', *, *, #406, .F. ) ;
#1083 = DIRECTION ( 'NONE',  ( 0.000000000000000000, 0.000000000000000000, 1.000000000000000000 ) ) ;
#1084 = PLANE ( 'NONE',  #436 ) ;
#1085 = VECTOR ( 'NONE', #527, 1000.000000000000000 ) ;
#1086 = FACE_OUTER_BOUND ( 'NONE', #140, .T. ) ;
#1087 = ORIENTED_EDGE ( 'NONE', *, *, #811, .F. ) ;
#1088 = ORIENTED_EDGE ( 'NONE', *, *, #984, .T. ) ;
#1089 = COORDINATED_UNIVERSAL_TIME_OFFSET ( 7, 0, .AHEAD. ) ;
#1090 = PRODUCT ( 'M-20iA35M axis6-M-20iA35M_D\X2\00e9\X0\faut_sldprt', 'M-20iA35M axis6-M-20iA35M_D\X2\00e9\X0\faut_sldprt', '', ( #474 ) ) ;
#1091 = CIRCLE ( 'NONE', #99, 2.999999999999999112 ) ;
#1092 = CARTESIAN_POINT ( 'NONE',  ( 99.50000000000000000, 25.00000000000005684, 8.112417341682471057E-14 ) ) ;
#1093 = DIRECTION ( 'NONE',  ( 1.000000000000000000, -0.000000000000000000, -0.000000000000000000 ) ) ;
#1094 = EDGE_LOOP ( 'NONE', ( #618, #559, #186, #261 ) ) ;
#1095 = EDGE_CURVE ( 'NONE', #202, #938, #831, .T. ) ;
#1096 = DIRECTION ( 'NONE',  ( 0.000000000000000000, 0.000000000000000000, -1.000000000000000000 ) ) ;
#1097 = CYLINDRICAL_SURFACE ( 'NONE', #22, 2.458499999999999019 ) ;
#1098 = DIRECTION ( 'NONE',  ( 0.000000000000000000, 0.000000000000000000, 1.000000000000000000 ) ) ;
#1099 = EDGE_LOOP ( 'NONE', ( #246, #207, #575, #778 ) ) ;
#1100 = CARTESIAN_POINT ( 'NONE',  ( 99.50000000000000000, 5.551115123125779547E-14, 7.806255641895631925E-14 ) ) ;
#1101 = AXIS2_PLACEMENT_3D ( 'NONE', #196, #797, #908 ) ;
#1102 = CARTESIAN_POINT ( 'NONE',  ( 94.00000000000000000, 6.591949208711869483E-14, -17.54150000000000276 ) ) ;
#1103 = AXIS2_PLACEMENT_3D ( 'NONE', #620, #969, #465 ) ;
#1104 = CIRCLE ( 'NONE', #400, 2.458499999999999019 ) ;
#1105 = ORIENTED_EDGE ( 'NONE', *, *, #294, .F. ) ;
#1106 = DIRECTION ( 'NONE',  ( 0.000000000000000000, 0.000000000000000000, 1.000000000000000000 ) ) ;
#1107 = CIRCLE ( 'NONE', #608, 2.458500000000000796 ) ;
#1108 = EDGE_CURVE ( 'NONE', #903, #145, #863, .T. ) ;
#1109 = CIRCLE ( 'NONE', #645, 2.458499999999999019 ) ;
#1110 = DIRECTION ( 'NONE',  ( 0.000000000000000000, -1.000000000000000000, -1.224646799147353207E-16 ) ) ;
#1111 = ORIENTED_EDGE ( 'NONE', *, *, #627, .F. ) ;
#1112 = DIRECTION ( 'NONE',  ( 1.000000000000000000, -0.000000000000000000, -0.000000000000000000 ) ) ;
#1113 = EDGE_CURVE ( 'NONE', #856, #523, #187, .T. ) ;
#1114 = FACE_OUTER_BOUND ( 'NONE', #1125, .T. ) ;
#1115 = ORIENTED_EDGE ( 'NONE', *, *, #141, .F. ) ;
#1116 = CARTESIAN_POINT ( 'NONE',  ( 94.39999999999999147, 5.551115123125779547E-14, 25.40000000000008029 ) ) ;
#1117 = CARTESIAN_POINT ( 'NONE',  ( 94.40000000000000568, -49.99999999999993605, -24.99999999999993250 ) ) ;
#1118 = DIRECTION ( 'NONE',  ( 0.000000000000000000, 0.000000000000000000, 1.000000000000000000 ) ) ;
#1119 = EDGE_LOOP ( 'NONE', ( #473, #51 ) ) ;
#1120 = CIRCLE ( 'NONE', #901, 2.458500000000000796 ) ;
#1121 = EDGE_CURVE ( 'NONE', #321, #536, #1104, .T. ) ;
#1122 = AXIS2_PLACEMENT_3D ( 'NONE', #1116, #64, #946 ) ;
#1123 = CC_DESIGN_APPROVAL ( #355, ( #497 ) ) ;
#1124 = CARTESIAN_POINT ( 'NONE',  ( 93.99999999999994316, 4.934733601045511992E-14, 25.16568542494935556 ) ) ;
#1125 = EDGE_LOOP ( 'NONE', ( #547, #390, #47, #646 ) ) ;
#1126 = VECTOR ( 'NONE', #62, 1000.000000000000000 ) ;
#1127 = DIRECTION ( 'NONE',  ( 0.000000000000000000, 0.000000000000000000, 1.000000000000000000 ) ) ;
#1128 = AXIS2_PLACEMENT_3D ( 'NONE', #761, #1110, #316 ) ;
#1129 = CARTESIAN_POINT ( 'NONE',  ( 84.99999999999998579, 0.000000000000000000, -25.39999999999999858 ) ) ;
#1130 = APPROVAL_ROLE ( '' ) ;
#1131 = EDGE_CURVE ( 'NONE', #592, #225, #345, .T. ) ;
#1132 = CARTESIAN_POINT ( 'NONE',  ( 94.16568542494920280, 5.857276822912618048E-14, -24.99999999999992539 ) ) ;
#1133 = ORIENTED_EDGE ( 'NONE', *, *, #1113, .F. ) ;
#1134 = DIRECTION ( 'NONE',  ( 0.000000000000000000, 0.000000000000000000, 1.000000000000000000 ) ) ;
#1135 = EDGE_LOOP ( 'NONE', ( #881, #731 ) ) ;
#1136 = DIRECTION ( 'NONE',  ( 1.000000000000000000, -0.000000000000000000, -0.000000000000000000 ) ) ;
#1137 = ORIENTED_EDGE ( 'NONE', *, *, #521, .T. ) ;
#1138 = EDGE_CURVE ( 'NONE', #145, #903, #535, .T. ) ;
#1139 = CARTESIAN_POINT ( 'NONE',  ( 100.0000000000000000, 14.14213562373099897, -14.14213562373087996 ) ) ;
#1140 = FACE_OUTER_BOUND ( 'NONE', #121, .T. ) ;
#1141 = PERSON_AND_ORGANIZATION ( #223, #56 ) ;
ENDSEC;
END-ISO-10303-21;
